<?xml version="1.0" encoding="utf-8" standalone="no"?>
<!DOCTYPE svg PUBLIC "-//W3C//DTD SVG 1.1//EN"
        "http://www.w3.org/Graphics/SVG/1.1/DTD/svg11.dtd">
<!-- Created with matplotlib (https://matplotlib.org/) -->
<svg xmlns:xlink="http://www.w3.org/1999/xlink" height="720pt" version="1.1" viewBox="0 0 1296 720" width="1296pt"
     xmlns="http://www.w3.org/2000/svg">
    <metadata>
        <rdf:RDF xmlns:cc="http://creativecommons.org/ns#" xmlns:dc="http://purl.org/dc/elements/1.1/"
                 xmlns:rdf="http://www.w3.org/1999/02/22-rdf-syntax-ns#">
            <cc:Work>
                <dc:type rdf:resource="http://purl.org/dc/dcmitype/StillImage"/>
                <dc:date>2021-06-17T14:33:54.352910</dc:date>
                <dc:format>image/svg+xml</dc:format>
                <dc:creator>
                    <cc:Agent>
                        <dc:title>Matplotlib v3.3.4, https://matplotlib.org/</dc:title>
                    </cc:Agent>
                </dc:creator>
            </cc:Work>
        </rdf:RDF>
    </metadata>
    <defs>
        <style type="text/css">*{stroke-linecap:butt;stroke-linejoin:round;}</style>
    </defs>
    <g id="figure_1">
        <g id="patch_1">
            <path d="M 0 720
L 1296 720 
L 1296 0 
L 0 0 
z
" style="fill:#ffffff;"/>
        </g>
        <g id="axes_1">
            <g id="patch_2">
                <path d="M 51.05 678.04
L 1285.2 678.04 
L 1285.2 10.8 
L 51.05 10.8 
z
" style="fill:#ffffff;"/>
            </g>
            <g id="matplotlib.axis_1">
                <g id="xtick_1">
                    <g id="line2d_1">
                        <defs>
                            <path d="M 0 0
L 0 3.5 
" id="mf86ba6e9fb" style="stroke:#000000;stroke-width:0.8;"/>
                        </defs>
                        <g>
                            <use style="stroke:#000000;stroke-width:0.8;" x="107.147727" xlink:href="#mf86ba6e9fb"
                                 y="678.04"/>
                        </g>
                    </g>
                    <g id="text_1">
                        <!-- 0 -->
                        <g transform="translate(103.966477 692.638438)scale(0.1 -0.1)">
                            <defs>
                                <path d="M 31.78125 66.40625
Q 24.171875 66.40625 20.328125 58.90625 
Q 16.5 51.421875 16.5 36.375 
Q 16.5 21.390625 20.328125 13.890625 
Q 24.171875 6.390625 31.78125 6.390625 
Q 39.453125 6.390625 43.28125 13.890625 
Q 47.125 21.390625 47.125 36.375 
Q 47.125 51.421875 43.28125 58.90625 
Q 39.453125 66.40625 31.78125 66.40625 
z
M 31.78125 74.21875 
Q 44.046875 74.21875 50.515625 64.515625 
Q 56.984375 54.828125 56.984375 36.375 
Q 56.984375 17.96875 50.515625 8.265625 
Q 44.046875 -1.421875 31.78125 -1.421875 
Q 19.53125 -1.421875 13.0625 8.265625 
Q 6.59375 17.96875 6.59375 36.375 
Q 6.59375 54.828125 13.0625 64.515625 
Q 19.53125 74.21875 31.78125 74.21875 
z
" id="DejaVuSans-48"/>
                            </defs>
                            <use xlink:href="#DejaVuSans-48"/>
                        </g>
                    </g>
                </g>
                <g id="xtick_2">
                    <g id="line2d_2">
                        <g>
                            <use style="stroke:#000000;stroke-width:0.8;" x="340.888258" xlink:href="#mf86ba6e9fb"
                                 y="678.04"/>
                        </g>
                    </g>
                    <g id="text_2">
                        <!-- 5 -->
                        <g transform="translate(337.707008 692.638438)scale(0.1 -0.1)">
                            <defs>
                                <path d="M 10.796875 72.90625
L 49.515625 72.90625 
L 49.515625 64.59375 
L 19.828125 64.59375 
L 19.828125 46.734375 
Q 21.96875 47.46875 24.109375 47.828125 
Q 26.265625 48.1875 28.421875 48.1875 
Q 40.625 48.1875 47.75 41.5 
Q 54.890625 34.8125 54.890625 23.390625 
Q 54.890625 11.625 47.5625 5.09375 
Q 40.234375 -1.421875 26.90625 -1.421875 
Q 22.3125 -1.421875 17.546875 -0.640625 
Q 12.796875 0.140625 7.71875 1.703125 
L 7.71875 11.625 
Q 12.109375 9.234375 16.796875 8.0625 
Q 21.484375 6.890625 26.703125 6.890625 
Q 35.15625 6.890625 40.078125 11.328125 
Q 45.015625 15.765625 45.015625 23.390625 
Q 45.015625 31 40.078125 35.4375 
Q 35.15625 39.890625 26.703125 39.890625 
Q 22.75 39.890625 18.8125 39.015625 
Q 14.890625 38.140625 10.796875 36.28125 
z
" id="DejaVuSans-53"/>
                            </defs>
                            <use xlink:href="#DejaVuSans-53"/>
                        </g>
                    </g>
                </g>
                <g id="xtick_3">
                    <g id="line2d_3">
                        <g>
                            <use style="stroke:#000000;stroke-width:0.8;" x="574.628788" xlink:href="#mf86ba6e9fb"
                                 y="678.04"/>
                        </g>
                    </g>
                    <g id="text_3">
                        <!-- 10 -->
                        <g transform="translate(568.266288 692.638438)scale(0.1 -0.1)">
                            <defs>
                                <path d="M 12.40625 8.296875
L 28.515625 8.296875 
L 28.515625 63.921875 
L 10.984375 60.40625 
L 10.984375 69.390625 
L 28.421875 72.90625 
L 38.28125 72.90625 
L 38.28125 8.296875 
L 54.390625 8.296875 
L 54.390625 0 
L 12.40625 0 
z
" id="DejaVuSans-49"/>
                            </defs>
                            <use xlink:href="#DejaVuSans-49"/>
                            <use x="63.623047" xlink:href="#DejaVuSans-48"/>
                        </g>
                    </g>
                </g>
                <g id="xtick_4">
                    <g id="line2d_4">
                        <g>
                            <use style="stroke:#000000;stroke-width:0.8;" x="808.369318" xlink:href="#mf86ba6e9fb"
                                 y="678.04"/>
                        </g>
                    </g>
                    <g id="text_4">
                        <!-- 15 -->
                        <g transform="translate(802.006818 692.638438)scale(0.1 -0.1)">
                            <use xlink:href="#DejaVuSans-49"/>
                            <use x="63.623047" xlink:href="#DejaVuSans-53"/>
                        </g>
                    </g>
                </g>
                <g id="xtick_5">
                    <g id="line2d_5">
                        <g>
                            <use style="stroke:#000000;stroke-width:0.8;" x="1042.109848" xlink:href="#mf86ba6e9fb"
                                 y="678.04"/>
                        </g>
                    </g>
                    <g id="text_5">
                        <!-- 20 -->
                        <g transform="translate(1035.747348 692.638438)scale(0.1 -0.1)">
                            <defs>
                                <path d="M 19.1875 8.296875
L 53.609375 8.296875 
L 53.609375 0 
L 7.328125 0 
L 7.328125 8.296875 
Q 12.9375 14.109375 22.625 23.890625 
Q 32.328125 33.6875 34.8125 36.53125 
Q 39.546875 41.84375 41.421875 45.53125 
Q 43.3125 49.21875 43.3125 52.78125 
Q 43.3125 58.59375 39.234375 62.25 
Q 35.15625 65.921875 28.609375 65.921875 
Q 23.96875 65.921875 18.8125 64.3125 
Q 13.671875 62.703125 7.8125 59.421875 
L 7.8125 69.390625 
Q 13.765625 71.78125 18.9375 73 
Q 24.125 74.21875 28.421875 74.21875 
Q 39.75 74.21875 46.484375 68.546875 
Q 53.21875 62.890625 53.21875 53.421875 
Q 53.21875 48.921875 51.53125 44.890625 
Q 49.859375 40.875 45.40625 35.40625 
Q 44.1875 33.984375 37.640625 27.21875 
Q 31.109375 20.453125 19.1875 8.296875 
z
" id="DejaVuSans-50"/>
                            </defs>
                            <use xlink:href="#DejaVuSans-50"/>
                            <use x="63.623047" xlink:href="#DejaVuSans-48"/>
                        </g>
                    </g>
                </g>
                <g id="xtick_6">
                    <g id="line2d_6">
                        <g>
                            <use style="stroke:#000000;stroke-width:0.8;" x="1275.850379" xlink:href="#mf86ba6e9fb"
                                 y="678.04"/>
                        </g>
                    </g>
                    <g id="text_6">
                        <!-- 25 -->
                        <g transform="translate(1269.487879 692.638438)scale(0.1 -0.1)">
                            <use xlink:href="#DejaVuSans-50"/>
                            <use x="63.623047" xlink:href="#DejaVuSans-53"/>
                        </g>
                    </g>
                </g>
                <g id="text_7">
                    <!-- Time -->
                    <g transform="translate(655.891406 706.316563)scale(0.1 -0.1)">
                        <defs>
                            <path d="M -0.296875 72.90625
L 61.375 72.90625 
L 61.375 64.59375 
L 35.5 64.59375 
L 35.5 0 
L 25.59375 0 
L 25.59375 64.59375 
L -0.296875 64.59375 
z
" id="DejaVuSans-84"/>
                            <path d="M 9.421875 54.6875
L 18.40625 54.6875 
L 18.40625 0 
L 9.421875 0 
z
M 9.421875 75.984375 
L 18.40625 75.984375 
L 18.40625 64.59375 
L 9.421875 64.59375 
z
" id="DejaVuSans-105"/>
                            <path d="M 52 44.1875
Q 55.375 50.25 60.0625 53.125 
Q 64.75 56 71.09375 56 
Q 79.640625 56 84.28125 50.015625 
Q 88.921875 44.046875 88.921875 33.015625 
L 88.921875 0 
L 79.890625 0 
L 79.890625 32.71875 
Q 79.890625 40.578125 77.09375 44.375 
Q 74.3125 48.1875 68.609375 48.1875 
Q 61.625 48.1875 57.5625 43.546875 
Q 53.515625 38.921875 53.515625 30.90625 
L 53.515625 0 
L 44.484375 0 
L 44.484375 32.71875 
Q 44.484375 40.625 41.703125 44.40625 
Q 38.921875 48.1875 33.109375 48.1875 
Q 26.21875 48.1875 22.15625 43.53125 
Q 18.109375 38.875 18.109375 30.90625 
L 18.109375 0 
L 9.078125 0 
L 9.078125 54.6875 
L 18.109375 54.6875 
L 18.109375 46.1875 
Q 21.1875 51.21875 25.484375 53.609375 
Q 29.78125 56 35.6875 56 
Q 41.65625 56 45.828125 52.96875 
Q 50 49.953125 52 44.1875 
z
" id="DejaVuSans-109"/>
                            <path d="M 56.203125 29.59375
L 56.203125 25.203125 
L 14.890625 25.203125 
Q 15.484375 15.921875 20.484375 11.0625 
Q 25.484375 6.203125 34.421875 6.203125 
Q 39.59375 6.203125 44.453125 7.46875 
Q 49.3125 8.734375 54.109375 11.28125 
L 54.109375 2.78125 
Q 49.265625 0.734375 44.1875 -0.34375 
Q 39.109375 -1.421875 33.890625 -1.421875 
Q 20.796875 -1.421875 13.15625 6.1875 
Q 5.515625 13.8125 5.515625 26.8125 
Q 5.515625 40.234375 12.765625 48.109375 
Q 20.015625 56 32.328125 56 
Q 43.359375 56 49.78125 48.890625 
Q 56.203125 41.796875 56.203125 29.59375 
z
M 47.21875 32.234375 
Q 47.125 39.59375 43.09375 43.984375 
Q 39.0625 48.390625 32.421875 48.390625 
Q 24.90625 48.390625 20.390625 44.140625 
Q 15.875 39.890625 15.1875 32.171875 
z
" id="DejaVuSans-101"/>
                        </defs>
                        <use xlink:href="#DejaVuSans-84"/>
                        <use x="57.958984" xlink:href="#DejaVuSans-105"/>
                        <use x="85.742188" xlink:href="#DejaVuSans-109"/>
                        <use x="183.154297" xlink:href="#DejaVuSans-101"/>
                    </g>
                </g>
            </g>
            <g id="matplotlib.axis_2">
                <g id="ytick_1">
                    <g id="line2d_7">
                        <defs>
                            <path d="M 0 0
L -3.5 0 
" id="mfde2f8bbc7" style="stroke:#000000;stroke-width:0.8;"/>
                        </defs>
                        <g>
                            <use style="stroke:#000000;stroke-width:0.8;" x="51.05" xlink:href="#mfde2f8bbc7"
                                 y="647.710909"/>
                        </g>
                    </g>
                    <g id="text_8">
                        <!-- 0 -->
                        <g transform="translate(37.6875 651.510128)scale(0.1 -0.1)">
                            <use xlink:href="#DejaVuSans-48"/>
                        </g>
                    </g>
                </g>
                <g id="ytick_2">
                    <g id="line2d_8">
                        <g>
                            <use style="stroke:#000000;stroke-width:0.8;" x="51.05" xlink:href="#mfde2f8bbc7"
                                 y="571.888182"/>
                        </g>
                    </g>
                    <g id="text_9">
                        <!-- 100 -->
                        <g transform="translate(24.9625 575.687401)scale(0.1 -0.1)">
                            <use xlink:href="#DejaVuSans-49"/>
                            <use x="63.623047" xlink:href="#DejaVuSans-48"/>
                            <use x="127.246094" xlink:href="#DejaVuSans-48"/>
                        </g>
                    </g>
                </g>
                <g id="ytick_3">
                    <g id="line2d_9">
                        <g>
                            <use style="stroke:#000000;stroke-width:0.8;" x="51.05" xlink:href="#mfde2f8bbc7"
                                 y="496.065455"/>
                        </g>
                    </g>
                    <g id="text_10">
                        <!-- 200 -->
                        <g transform="translate(24.9625 499.864673)scale(0.1 -0.1)">
                            <use xlink:href="#DejaVuSans-50"/>
                            <use x="63.623047" xlink:href="#DejaVuSans-48"/>
                            <use x="127.246094" xlink:href="#DejaVuSans-48"/>
                        </g>
                    </g>
                </g>
                <g id="ytick_4">
                    <g id="line2d_10">
                        <g>
                            <use style="stroke:#000000;stroke-width:0.8;" x="51.05" xlink:href="#mfde2f8bbc7"
                                 y="420.242727"/>
                        </g>
                    </g>
                    <g id="text_11">
                        <!-- 300 -->
                        <g transform="translate(24.9625 424.041946)scale(0.1 -0.1)">
                            <defs>
                                <path d="M 40.578125 39.3125
Q 47.65625 37.796875 51.625 33 
Q 55.609375 28.21875 55.609375 21.1875 
Q 55.609375 10.40625 48.1875 4.484375 
Q 40.765625 -1.421875 27.09375 -1.421875 
Q 22.515625 -1.421875 17.65625 -0.515625 
Q 12.796875 0.390625 7.625 2.203125 
L 7.625 11.71875 
Q 11.71875 9.328125 16.59375 8.109375 
Q 21.484375 6.890625 26.8125 6.890625 
Q 36.078125 6.890625 40.9375 10.546875 
Q 45.796875 14.203125 45.796875 21.1875 
Q 45.796875 27.640625 41.28125 31.265625 
Q 36.765625 34.90625 28.71875 34.90625 
L 20.21875 34.90625 
L 20.21875 43.015625 
L 29.109375 43.015625 
Q 36.375 43.015625 40.234375 45.921875 
Q 44.09375 48.828125 44.09375 54.296875 
Q 44.09375 59.90625 40.109375 62.90625 
Q 36.140625 65.921875 28.71875 65.921875 
Q 24.65625 65.921875 20.015625 65.03125 
Q 15.375 64.15625 9.8125 62.3125 
L 9.8125 71.09375 
Q 15.4375 72.65625 20.34375 73.4375 
Q 25.25 74.21875 29.59375 74.21875 
Q 40.828125 74.21875 47.359375 69.109375 
Q 53.90625 64.015625 53.90625 55.328125 
Q 53.90625 49.265625 50.4375 45.09375 
Q 46.96875 40.921875 40.578125 39.3125 
z
" id="DejaVuSans-51"/>
                            </defs>
                            <use xlink:href="#DejaVuSans-51"/>
                            <use x="63.623047" xlink:href="#DejaVuSans-48"/>
                            <use x="127.246094" xlink:href="#DejaVuSans-48"/>
                        </g>
                    </g>
                </g>
                <g id="ytick_5">
                    <g id="line2d_11">
                        <g>
                            <use style="stroke:#000000;stroke-width:0.8;" x="51.05" xlink:href="#mfde2f8bbc7"
                                 y="344.42"/>
                        </g>
                    </g>
                    <g id="text_12">
                        <!-- 400 -->
                        <g transform="translate(24.9625 348.219219)scale(0.1 -0.1)">
                            <defs>
                                <path d="M 37.796875 64.3125
L 12.890625 25.390625 
L 37.796875 25.390625 
z
M 35.203125 72.90625 
L 47.609375 72.90625 
L 47.609375 25.390625 
L 58.015625 25.390625 
L 58.015625 17.1875 
L 47.609375 17.1875 
L 47.609375 0 
L 37.796875 0 
L 37.796875 17.1875 
L 4.890625 17.1875 
L 4.890625 26.703125 
z
" id="DejaVuSans-52"/>
                            </defs>
                            <use xlink:href="#DejaVuSans-52"/>
                            <use x="63.623047" xlink:href="#DejaVuSans-48"/>
                            <use x="127.246094" xlink:href="#DejaVuSans-48"/>
                        </g>
                    </g>
                </g>
                <g id="ytick_6">
                    <g id="line2d_12">
                        <g>
                            <use style="stroke:#000000;stroke-width:0.8;" x="51.05" xlink:href="#mfde2f8bbc7"
                                 y="268.597273"/>
                        </g>
                    </g>
                    <g id="text_13">
                        <!-- 500 -->
                        <g transform="translate(24.9625 272.396491)scale(0.1 -0.1)">
                            <use xlink:href="#DejaVuSans-53"/>
                            <use x="63.623047" xlink:href="#DejaVuSans-48"/>
                            <use x="127.246094" xlink:href="#DejaVuSans-48"/>
                        </g>
                    </g>
                </g>
                <g id="ytick_7">
                    <g id="line2d_13">
                        <g>
                            <use style="stroke:#000000;stroke-width:0.8;" x="51.05" xlink:href="#mfde2f8bbc7"
                                 y="192.774545"/>
                        </g>
                    </g>
                    <g id="text_14">
                        <!-- 600 -->
                        <g transform="translate(24.9625 196.573764)scale(0.1 -0.1)">
                            <defs>
                                <path d="M 33.015625 40.375
Q 26.375 40.375 22.484375 35.828125 
Q 18.609375 31.296875 18.609375 23.390625 
Q 18.609375 15.53125 22.484375 10.953125 
Q 26.375 6.390625 33.015625 6.390625 
Q 39.65625 6.390625 43.53125 10.953125 
Q 47.40625 15.53125 47.40625 23.390625 
Q 47.40625 31.296875 43.53125 35.828125 
Q 39.65625 40.375 33.015625 40.375 
z
M 52.59375 71.296875 
L 52.59375 62.3125 
Q 48.875 64.0625 45.09375 64.984375 
Q 41.3125 65.921875 37.59375 65.921875 
Q 27.828125 65.921875 22.671875 59.328125 
Q 17.53125 52.734375 16.796875 39.40625 
Q 19.671875 43.65625 24.015625 45.921875 
Q 28.375 48.1875 33.59375 48.1875 
Q 44.578125 48.1875 50.953125 41.515625 
Q 57.328125 34.859375 57.328125 23.390625 
Q 57.328125 12.15625 50.6875 5.359375 
Q 44.046875 -1.421875 33.015625 -1.421875 
Q 20.359375 -1.421875 13.671875 8.265625 
Q 6.984375 17.96875 6.984375 36.375 
Q 6.984375 53.65625 15.1875 63.9375 
Q 23.390625 74.21875 37.203125 74.21875 
Q 40.921875 74.21875 44.703125 73.484375 
Q 48.484375 72.75 52.59375 71.296875 
z
" id="DejaVuSans-54"/>
                            </defs>
                            <use xlink:href="#DejaVuSans-54"/>
                            <use x="63.623047" xlink:href="#DejaVuSans-48"/>
                            <use x="127.246094" xlink:href="#DejaVuSans-48"/>
                        </g>
                    </g>
                </g>
                <g id="ytick_8">
                    <g id="line2d_14">
                        <g>
                            <use style="stroke:#000000;stroke-width:0.8;" x="51.05" xlink:href="#mfde2f8bbc7"
                                 y="116.951818"/>
                        </g>
                    </g>
                    <g id="text_15">
                        <!-- 700 -->
                        <g transform="translate(24.9625 120.751037)scale(0.1 -0.1)">
                            <defs>
                                <path d="M 8.203125 72.90625
L 55.078125 72.90625 
L 55.078125 68.703125 
L 28.609375 0 
L 18.3125 0 
L 43.21875 64.59375 
L 8.203125 64.59375 
z
" id="DejaVuSans-55"/>
                            </defs>
                            <use xlink:href="#DejaVuSans-55"/>
                            <use x="63.623047" xlink:href="#DejaVuSans-48"/>
                            <use x="127.246094" xlink:href="#DejaVuSans-48"/>
                        </g>
                    </g>
                </g>
                <g id="ytick_9">
                    <g id="line2d_15">
                        <g>
                            <use style="stroke:#000000;stroke-width:0.8;" x="51.05" xlink:href="#mfde2f8bbc7"
                                 y="41.129091"/>
                        </g>
                    </g>
                    <g id="text_16">
                        <!-- 800 -->
                        <g transform="translate(24.9625 44.92831)scale(0.1 -0.1)">
                            <defs>
                                <path d="M 31.78125 34.625
Q 24.75 34.625 20.71875 30.859375 
Q 16.703125 27.09375 16.703125 20.515625 
Q 16.703125 13.921875 20.71875 10.15625 
Q 24.75 6.390625 31.78125 6.390625 
Q 38.8125 6.390625 42.859375 10.171875 
Q 46.921875 13.96875 46.921875 20.515625 
Q 46.921875 27.09375 42.890625 30.859375 
Q 38.875 34.625 31.78125 34.625 
z
M 21.921875 38.8125 
Q 15.578125 40.375 12.03125 44.71875 
Q 8.5 49.078125 8.5 55.328125 
Q 8.5 64.0625 14.71875 69.140625 
Q 20.953125 74.21875 31.78125 74.21875 
Q 42.671875 74.21875 48.875 69.140625 
Q 55.078125 64.0625 55.078125 55.328125 
Q 55.078125 49.078125 51.53125 44.71875 
Q 48 40.375 41.703125 38.8125 
Q 48.828125 37.15625 52.796875 32.3125 
Q 56.78125 27.484375 56.78125 20.515625 
Q 56.78125 9.90625 50.3125 4.234375 
Q 43.84375 -1.421875 31.78125 -1.421875 
Q 19.734375 -1.421875 13.25 4.234375 
Q 6.78125 9.90625 6.78125 20.515625 
Q 6.78125 27.484375 10.78125 32.3125 
Q 14.796875 37.15625 21.921875 38.8125 
z
M 18.3125 54.390625 
Q 18.3125 48.734375 21.84375 45.5625 
Q 25.390625 42.390625 31.78125 42.390625 
Q 38.140625 42.390625 41.71875 45.5625 
Q 45.3125 48.734375 45.3125 54.390625 
Q 45.3125 60.0625 41.71875 63.234375 
Q 38.140625 66.40625 31.78125 66.40625 
Q 25.390625 66.40625 21.84375 63.234375 
Q 18.3125 60.0625 18.3125 54.390625 
z
" id="DejaVuSans-56"/>
                            </defs>
                            <use xlink:href="#DejaVuSans-56"/>
                            <use x="63.623047" xlink:href="#DejaVuSans-48"/>
                            <use x="127.246094" xlink:href="#DejaVuSans-48"/>
                        </g>
                    </g>
                </g>
                <g id="text_17">
                    <!-- # of cells -->
                    <g transform="translate(18.882812 367.816094)rotate(-90)scale(0.1 -0.1)">
                        <defs>
                            <path d="M 51.125 44
L 36.921875 44 
L 32.8125 27.6875 
L 47.125 27.6875 
z
M 43.796875 71.78125 
L 38.71875 51.515625 
L 52.984375 51.515625 
L 58.109375 71.78125 
L 65.921875 71.78125 
L 60.890625 51.515625 
L 76.125 51.515625 
L 76.125 44 
L 58.984375 44 
L 54.984375 27.6875 
L 70.515625 27.6875 
L 70.515625 20.21875 
L 53.078125 20.21875 
L 48 0 
L 40.1875 0 
L 45.21875 20.21875 
L 30.90625 20.21875 
L 25.875 0 
L 18.015625 0 
L 23.09375 20.21875 
L 7.71875 20.21875 
L 7.71875 27.6875 
L 24.90625 27.6875 
L 29 44 
L 13.28125 44 
L 13.28125 51.515625 
L 30.90625 51.515625 
L 35.890625 71.78125 
z
" id="DejaVuSans-35"/>
                            <path id="DejaVuSans-32"/>
                            <path d="M 30.609375 48.390625
Q 23.390625 48.390625 19.1875 42.75 
Q 14.984375 37.109375 14.984375 27.296875 
Q 14.984375 17.484375 19.15625 11.84375 
Q 23.34375 6.203125 30.609375 6.203125 
Q 37.796875 6.203125 41.984375 11.859375 
Q 46.1875 17.53125 46.1875 27.296875 
Q 46.1875 37.015625 41.984375 42.703125 
Q 37.796875 48.390625 30.609375 48.390625 
z
M 30.609375 56 
Q 42.328125 56 49.015625 48.375 
Q 55.71875 40.765625 55.71875 27.296875 
Q 55.71875 13.875 49.015625 6.21875 
Q 42.328125 -1.421875 30.609375 -1.421875 
Q 18.84375 -1.421875 12.171875 6.21875 
Q 5.515625 13.875 5.515625 27.296875 
Q 5.515625 40.765625 12.171875 48.375 
Q 18.84375 56 30.609375 56 
z
" id="DejaVuSans-111"/>
                            <path d="M 37.109375 75.984375
L 37.109375 68.5 
L 28.515625 68.5 
Q 23.6875 68.5 21.796875 66.546875 
Q 19.921875 64.59375 19.921875 59.515625 
L 19.921875 54.6875 
L 34.71875 54.6875 
L 34.71875 47.703125 
L 19.921875 47.703125 
L 19.921875 0 
L 10.890625 0 
L 10.890625 47.703125 
L 2.296875 47.703125 
L 2.296875 54.6875 
L 10.890625 54.6875 
L 10.890625 58.5 
Q 10.890625 67.625 15.140625 71.796875 
Q 19.390625 75.984375 28.609375 75.984375 
z
" id="DejaVuSans-102"/>
                            <path d="M 48.78125 52.59375
L 48.78125 44.1875 
Q 44.96875 46.296875 41.140625 47.34375 
Q 37.3125 48.390625 33.40625 48.390625 
Q 24.65625 48.390625 19.8125 42.84375 
Q 14.984375 37.3125 14.984375 27.296875 
Q 14.984375 17.28125 19.8125 11.734375 
Q 24.65625 6.203125 33.40625 6.203125 
Q 37.3125 6.203125 41.140625 7.25 
Q 44.96875 8.296875 48.78125 10.40625 
L 48.78125 2.09375 
Q 45.015625 0.34375 40.984375 -0.53125 
Q 36.96875 -1.421875 32.421875 -1.421875 
Q 20.0625 -1.421875 12.78125 6.34375 
Q 5.515625 14.109375 5.515625 27.296875 
Q 5.515625 40.671875 12.859375 48.328125 
Q 20.21875 56 33.015625 56 
Q 37.15625 56 41.109375 55.140625 
Q 45.0625 54.296875 48.78125 52.59375 
z
" id="DejaVuSans-99"/>
                            <path d="M 9.421875 75.984375
L 18.40625 75.984375 
L 18.40625 0 
L 9.421875 0 
z
" id="DejaVuSans-108"/>
                            <path d="M 44.28125 53.078125
L 44.28125 44.578125 
Q 40.484375 46.53125 36.375 47.5 
Q 32.28125 48.484375 27.875 48.484375 
Q 21.1875 48.484375 17.84375 46.4375 
Q 14.5 44.390625 14.5 40.28125 
Q 14.5 37.15625 16.890625 35.375 
Q 19.28125 33.59375 26.515625 31.984375 
L 29.59375 31.296875 
Q 39.15625 29.25 43.1875 25.515625 
Q 47.21875 21.78125 47.21875 15.09375 
Q 47.21875 7.46875 41.1875 3.015625 
Q 35.15625 -1.421875 24.609375 -1.421875 
Q 20.21875 -1.421875 15.453125 -0.5625 
Q 10.6875 0.296875 5.421875 2 
L 5.421875 11.28125 
Q 10.40625 8.6875 15.234375 7.390625 
Q 20.0625 6.109375 24.8125 6.109375 
Q 31.15625 6.109375 34.5625 8.28125 
Q 37.984375 10.453125 37.984375 14.40625 
Q 37.984375 18.0625 35.515625 20.015625 
Q 33.0625 21.96875 24.703125 23.78125 
L 21.578125 24.515625 
Q 13.234375 26.265625 9.515625 29.90625 
Q 5.8125 33.546875 5.8125 39.890625 
Q 5.8125 47.609375 11.28125 51.796875 
Q 16.75 56 26.8125 56 
Q 31.78125 56 36.171875 55.265625 
Q 40.578125 54.546875 44.28125 53.078125 
z
" id="DejaVuSans-115"/>
                        </defs>
                        <use xlink:href="#DejaVuSans-35"/>
                        <use x="83.789062" xlink:href="#DejaVuSans-32"/>
                        <use x="115.576172" xlink:href="#DejaVuSans-111"/>
                        <use x="176.757812" xlink:href="#DejaVuSans-102"/>
                        <use x="211.962891" xlink:href="#DejaVuSans-32"/>
                        <use x="243.75" xlink:href="#DejaVuSans-99"/>
                        <use x="298.730469" xlink:href="#DejaVuSans-101"/>
                        <use x="360.253906" xlink:href="#DejaVuSans-108"/>
                        <use x="388.037109" xlink:href="#DejaVuSans-108"/>
                        <use x="415.820312" xlink:href="#DejaVuSans-115"/>
                    </g>
                </g>
            </g>
            <g id="line2d_16">
                <path clip-path="url(#p5d56ad0f83)" d="M 107.147727 647.710909
L 118.367273 611.316 
L 129.586818 619.6565 
L 140.806364 620.414727 
L 152.025909 617.381818 
L 163.245455 627.238773 
L 174.465 621.172955 
L 185.684545 625.722318 
L 196.904091 621.931182 
L 208.123636 624.205864 
L 219.343182 622.689409 
L 230.562727 624.205864 
L 241.782273 621.931182 
L 253.001818 626.480545 
L 264.221364 631.029909 
L 275.440909 624.964091 
L 286.660455 621.172955 
L 297.88 621.931182 
L 309.099545 626.480545 
L 320.319091 626.480545 
L 331.538636 627.238773 
L 342.758182 622.689409 
L 353.977727 627.238773 
L 365.197273 622.689409 
L 376.416818 623.447636 
L 387.636364 630.271682 
L 398.855909 629.513455 
L 410.075455 627.238773 
L 421.295 624.205864 
L 432.514545 626.480545 
L 443.734091 621.931182 
L 454.953636 619.6565 
L 466.173182 626.480545 
L 477.392727 627.997 
L 488.612273 629.513455 
L 499.831818 627.997 
L 511.051364 627.997 
L 522.270909 632.546364 
L 533.490455 627.997 
L 544.71 635.579273 
L 555.929545 627.238773 
L 567.149091 628.755227 
L 578.368636 630.271682 
L 589.588182 629.513455 
L 600.807727 637.095727 
L 612.027273 634.062818 
L 623.246818 627.238773 
L 634.466364 637.095727 
L 645.685909 627.997 
L 656.905455 634.062818 
L 668.125 631.029909 
L 679.344545 634.062818 
L 690.564091 636.3375 
L 701.783636 636.3375 
L 713.003182 637.095727 
L 724.222727 637.853955 
L 735.442273 641.645091 
L 746.661818 642.403318 
L 757.881364 640.886864 
L 769.100909 636.3375 
L 780.320455 643.161545 
L 791.54 641.645091 
L 802.759545 643.161545 
L 813.979091 643.161545 
L 825.198636 639.370409 
L 836.418182 643.161545 
L 847.637727 645.436227 
L 858.857273 645.436227 
L 870.076818 644.678 
L 881.296364 647.710909 
L 892.515909 645.436227 
L 903.735455 646.194455 
L 914.955 646.952682 
L 926.174545 647.710909 
L 937.394091 647.710909 
L 948.613636 646.952682 
L 959.833182 647.710909 
L 971.052727 646.952682 
L 982.272273 646.194455 
L 993.491818 646.194455 
L 1004.711364 647.710909 
L 1015.930909 647.710909 
L 1027.150455 647.710909 
L 1038.37 646.952682 
L 1049.589545 646.952682 
L 1060.809091 646.952682 
L 1072.028636 646.952682 
L 1083.248182 646.952682 
L 1094.467727 646.952682 
L 1105.687273 647.710909 
L 1116.906818 647.710909 
L 1128.126364 647.710909 
L 1139.345909 647.710909 
L 1150.565455 647.710909 
L 1161.785 647.710909 
L 1173.004545 647.710909 
L 1184.224091 647.710909 
L 1195.443636 647.710909 
L 1206.663182 647.710909 
L 1217.882727 647.710909 
L 1229.102273 647.710909 
" style="fill:none;stroke:#1f77b4;stroke-linecap:square;stroke-width:1.5;"/>
            </g>
            <g id="line2d_17">
                <path clip-path="url(#p5d56ad0f83)" d="M 107.147727 647.710909
L 118.367273 626.480545 
L 129.586818 624.205864 
L 140.806364 622.689409 
L 152.025909 632.546364 
L 163.245455 624.205864 
L 174.465 627.238773 
L 185.684545 624.205864 
L 196.904091 627.997 
L 208.123636 630.271682 
L 219.343182 622.689409 
L 230.562727 629.513455 
L 241.782273 624.964091 
L 253.001818 627.238773 
L 264.221364 620.414727 
L 275.440909 628.755227 
L 286.660455 627.997 
L 297.88 631.029909 
L 309.099545 630.271682 
L 320.319091 627.238773 
L 331.538636 634.062818 
L 342.758182 631.029909 
L 353.977727 624.205864 
L 365.197273 628.755227 
L 376.416818 631.788136 
L 387.636364 627.238773 
L 398.855909 623.447636 
L 410.075455 622.689409 
L 421.295 631.788136 
L 432.514545 625.722318 
L 443.734091 627.997 
L 454.953636 629.513455 
L 466.173182 625.722318 
L 477.392727 628.755227 
L 488.612273 626.480545 
L 499.831818 626.480545 
L 511.051364 629.513455 
L 522.270909 618.140045 
L 533.490455 629.513455 
L 544.71 622.689409 
L 555.929545 624.964091 
L 567.149091 627.238773 
L 578.368636 626.480545 
L 589.588182 630.271682 
L 600.807727 623.447636 
L 612.027273 629.513455 
L 623.246818 629.513455 
L 634.466364 630.271682 
L 645.685909 631.029909 
L 656.905455 627.997 
L 668.125 630.271682 
L 679.344545 623.447636 
L 690.564091 628.755227 
L 701.783636 624.964091 
L 713.003182 629.513455 
L 724.222727 628.755227 
L 735.442273 626.480545 
L 746.661818 627.997 
L 757.881364 633.304591 
L 769.100909 634.062818 
L 780.320455 631.029909 
L 791.54 633.304591 
L 802.759545 630.271682 
L 813.979091 637.095727 
L 825.198636 635.579273 
L 836.418182 634.062818 
L 847.637727 639.370409 
L 858.857273 637.095727 
L 870.076818 641.645091 
L 881.296364 640.128636 
L 892.515909 643.161545 
L 903.735455 642.403318 
L 914.955 640.886864 
L 926.174545 642.403318 
L 937.394091 644.678 
L 948.613636 643.919773 
L 959.833182 642.403318 
L 971.052727 646.952682 
L 982.272273 646.194455 
L 993.491818 646.194455 
L 1004.711364 644.678 
L 1015.930909 645.436227 
L 1027.150455 646.194455 
L 1038.37 646.194455 
L 1049.589545 646.952682 
L 1060.809091 645.436227 
L 1072.028636 646.952682 
L 1083.248182 646.952682 
L 1094.467727 646.952682 
L 1105.687273 646.194455 
L 1116.906818 646.194455 
L 1128.126364 646.952682 
L 1139.345909 646.952682 
L 1150.565455 647.710909 
L 1161.785 647.710909 
L 1173.004545 647.710909 
L 1184.224091 645.436227 
L 1195.443636 646.952682 
L 1206.663182 646.194455 
L 1217.882727 646.952682 
L 1229.102273 646.194455 
" style="fill:none;stroke:#ff7f0e;stroke-linecap:square;stroke-width:1.5;"/>
            </g>
            <g id="line2d_18">
                <path clip-path="url(#p5d56ad0f83)" d="M 107.147727 647.710909
L 118.367273 629.513455 
L 129.586818 623.447636 
L 140.806364 624.964091 
L 152.025909 617.381818 
L 163.245455 616.623591 
L 174.465 618.898273 
L 185.684545 617.381818 
L 196.904091 617.381818 
L 208.123636 613.590682 
L 219.343182 622.689409 
L 230.562727 613.590682 
L 241.782273 621.931182 
L 253.001818 615.107136 
L 264.221364 615.865364 
L 275.440909 615.865364 
L 286.660455 618.898273 
L 297.88 614.348909 
L 309.099545 611.316 
L 320.319091 615.107136 
L 331.538636 607.524864 
L 342.758182 613.590682 
L 353.977727 615.865364 
L 365.197273 615.865364 
L 376.416818 612.074227 
L 387.636364 610.557773 
L 398.855909 614.348909 
L 410.075455 618.140045 
L 421.295 612.074227 
L 432.514545 615.107136 
L 443.734091 617.381818 
L 454.953636 618.140045 
L 466.173182 615.107136 
L 477.392727 612.074227 
L 488.612273 612.074227 
L 499.831818 612.832455 
L 511.051364 612.074227 
L 522.270909 617.381818 
L 533.490455 612.074227 
L 544.71 609.041318 
L 555.929545 615.107136 
L 567.149091 612.074227 
L 578.368636 612.832455 
L 589.588182 609.041318 
L 600.807727 607.524864 
L 612.027273 607.524864 
L 623.246818 612.832455 
L 634.466364 602.217273 
L 645.685909 609.041318 
L 656.905455 606.008409 
L 668.125 606.008409 
L 679.344545 610.557773 
L 690.564091 605.250182 
L 701.783636 607.524864 
L 713.003182 602.217273 
L 724.222727 601.459045 
L 735.442273 603.733727 
L 746.661818 599.942591 
L 757.881364 594.635 
L 769.100909 600.700818 
L 780.320455 599.942591 
L 791.54 598.426136 
L 802.759545 599.184364 
L 813.979091 596.909682 
L 825.198636 600.700818 
L 836.418182 597.667909 
L 847.637727 594.635 
L 858.857273 603.733727 
L 870.076818 605.250182 
L 881.296364 607.524864 
L 892.515909 612.832455 
L 903.735455 617.381818 
L 914.955 621.931182 
L 926.174545 621.931182 
L 937.394091 621.931182 
L 948.613636 624.964091 
L 959.833182 627.238773 
L 971.052727 626.480545 
L 982.272273 631.029909 
L 993.491818 634.062818 
L 1004.711364 634.821045 
L 1015.930909 634.821045 
L 1027.150455 634.821045 
L 1038.37 634.821045 
L 1049.589545 634.821045 
L 1060.809091 637.095727 
L 1072.028636 638.612182 
L 1083.248182 639.370409 
L 1094.467727 639.370409 
L 1105.687273 640.128636 
L 1116.906818 640.886864 
L 1128.126364 641.645091 
L 1139.345909 641.645091 
L 1150.565455 640.886864 
L 1161.785 643.161545 
L 1173.004545 642.403318 
L 1184.224091 645.436227 
L 1195.443636 644.678 
L 1206.663182 644.678 
L 1217.882727 645.436227 
L 1229.102273 646.952682 
" style="fill:none;stroke:#2ca02c;stroke-linecap:square;stroke-width:1.5;"/>
            </g>
            <g id="line2d_19">
                <path clip-path="url(#p5d56ad0f83)" d="M 107.147727 41.129091
L 118.367273 133.632818 
L 129.586818 152.5885 
L 140.806364 174.577091 
L 152.025909 192.016318 
L 163.245455 205.664409 
L 174.465 229.927682 
L 185.684545 238.268182 
L 196.904091 249.641591 
L 208.123636 251.158045 
L 219.343182 269.3555 
L 230.562727 279.212455 
L 241.782273 298.926364 
L 253.001818 303.475727 
L 264.221364 309.541545 
L 275.440909 321.673182 
L 286.660455 332.288364 
L 297.88 345.178227 
L 309.099545 349.727591 
L 320.319091 359.584545 
L 331.538636 358.826318 
L 342.758182 364.892136 
L 353.977727 377.782 
L 365.197273 383.089591 
L 376.416818 399.012364 
L 387.636364 402.045273 
L 398.855909 414.935136 
L 410.075455 417.968045 
L 421.295 419.4845 
L 432.514545 432.374364 
L 443.734091 445.264227 
L 454.953636 454.362955 
L 466.173182 458.912318 
L 477.392727 471.043955 
L 488.612273 479.384455 
L 499.831818 487.724955 
L 511.051364 490.757864 
L 522.270909 497.581909 
L 533.490455 511.988227 
L 544.71 512.746455 
L 555.929545 521.086955 
L 567.149091 524.119864 
L 578.368636 534.735045 
L 589.588182 543.833773 
L 600.807727 550.657818 
L 612.027273 556.723636 
L 623.246818 569.6135 
L 634.466364 574.921091 
L 645.685909 585.536273 
L 656.905455 590.085636 
L 668.125 592.360318 
L 679.344545 599.184364 
L 690.564091 604.491955 
L 701.783636 612.832455 
L 713.003182 618.140045 
L 724.222727 625.722318 
L 735.442273 628.755227 
L 746.661818 635.579273 
L 757.881364 635.579273 
L 769.100909 640.886864 
L 780.320455 641.645091 
L 791.54 643.919773 
L 802.759545 644.678 
L 813.979091 644.678 
L 825.198636 646.194455 
L 836.418182 647.710909 
L 847.637727 647.710909 
L 858.857273 646.952682 
L 870.076818 647.710909 
L 881.296364 646.952682 
L 892.515909 647.710909 
L 903.735455 647.710909 
L 914.955 647.710909 
L 926.174545 647.710909 
L 937.394091 647.710909 
L 948.613636 647.710909 
L 959.833182 647.710909 
L 971.052727 647.710909 
L 982.272273 647.710909 
L 993.491818 647.710909 
L 1004.711364 647.710909 
L 1015.930909 647.710909 
L 1027.150455 647.710909 
L 1038.37 647.710909 
L 1049.589545 647.710909 
L 1060.809091 647.710909 
L 1072.028636 647.710909 
L 1083.248182 647.710909 
L 1094.467727 647.710909 
L 1105.687273 647.710909 
L 1116.906818 647.710909 
L 1128.126364 647.710909 
L 1139.345909 647.710909 
L 1150.565455 647.710909 
L 1161.785 647.710909 
L 1173.004545 647.710909 
L 1184.224091 647.710909 
L 1195.443636 647.710909 
L 1206.663182 647.710909 
L 1217.882727 647.710909 
L 1229.102273 647.710909 
" style="fill:none;stroke:#d62728;stroke-linecap:square;stroke-width:1.5;"/>
            </g>
            <g id="line2d_20">
                <path clip-path="url(#p5d56ad0f83)" d="M 107.147727 647.710909
L 118.367273 631.788136 
L 129.586818 628.755227 
L 140.806364 624.205864 
L 152.025909 612.832455 
L 163.245455 601.459045 
L 174.465 594.635 
L 185.684545 589.327409 
L 196.904091 587.052727 
L 208.123636 591.602091 
L 219.343182 586.2945 
L 230.562727 576.437545 
L 241.782273 574.162864 
L 253.001818 575.679318 
L 264.221364 574.162864 
L 275.440909 577.954 
L 286.660455 577.954 
L 297.88 574.162864 
L 309.099545 574.921091 
L 320.319091 579.470455 
L 331.538636 580.228682 
L 342.758182 584.778045 
L 353.977727 586.2945 
L 365.197273 589.327409 
L 376.416818 579.470455 
L 387.636364 580.986909 
L 398.855909 577.954 
L 410.075455 587.810955 
L 421.295 587.810955 
L 432.514545 584.778045 
L 443.734091 579.470455 
L 454.953636 582.503364 
L 466.173182 581.745136 
L 477.392727 580.228682 
L 488.612273 582.503364 
L 499.831818 589.327409 
L 511.051364 593.118545 
L 522.270909 598.426136 
L 533.490455 586.2945 
L 544.71 593.876773 
L 555.929545 600.700818 
L 567.149091 602.9755 
L 578.368636 606.766636 
L 589.588182 600.700818 
L 600.807727 607.524864 
L 612.027273 603.733727 
L 623.246818 608.283091 
L 634.466364 604.491955 
L 645.685909 606.766636 
L 656.905455 604.491955 
L 668.125 607.524864 
L 679.344545 615.107136 
L 690.564091 615.107136 
L 701.783636 626.480545 
L 713.003182 620.414727 
L 724.222727 620.414727 
L 735.442273 623.447636 
L 746.661818 620.414727 
L 757.881364 628.755227 
L 769.100909 633.304591 
L 780.320455 636.3375 
L 791.54 641.645091 
L 802.759545 645.436227 
L 813.979091 643.919773 
L 825.198636 643.919773 
L 836.418182 644.678 
L 847.637727 646.194455 
L 858.857273 646.952682 
L 870.076818 645.436227 
L 881.296364 646.952682 
L 892.515909 646.952682 
L 903.735455 647.710909 
L 914.955 647.710909 
L 926.174545 646.952682 
L 937.394091 646.952682 
L 948.613636 647.710909 
L 959.833182 647.710909 
L 971.052727 647.710909 
L 982.272273 646.952682 
L 993.491818 646.952682 
L 1004.711364 647.710909 
L 1015.930909 647.710909 
L 1027.150455 647.710909 
L 1038.37 647.710909 
L 1049.589545 647.710909 
L 1060.809091 647.710909 
L 1072.028636 647.710909 
L 1083.248182 647.710909 
L 1094.467727 647.710909 
L 1105.687273 647.710909 
L 1116.906818 647.710909 
L 1128.126364 647.710909 
L 1139.345909 647.710909 
L 1150.565455 647.710909 
L 1161.785 647.710909 
L 1173.004545 647.710909 
L 1184.224091 647.710909 
L 1195.443636 647.710909 
L 1206.663182 647.710909 
L 1217.882727 647.710909 
L 1229.102273 647.710909 
" style="fill:none;stroke:#9467bd;stroke-linecap:square;stroke-width:1.5;"/>
            </g>
            <g id="line2d_21">
                <path clip-path="url(#p5d56ad0f83)" d="M 107.147727 647.710909
L 118.367273 643.161545 
L 129.586818 630.271682 
L 140.806364 613.590682 
L 152.025909 607.524864 
L 163.245455 606.008409 
L 174.465 599.942591 
L 185.684545 603.733727 
L 196.904091 605.250182 
L 208.123636 605.250182 
L 219.343182 599.184364 
L 230.562727 606.766636 
L 241.782273 596.909682 
L 253.001818 599.184364 
L 264.221364 602.9755 
L 275.440909 588.569182 
L 286.660455 586.2945 
L 297.88 584.778045 
L 309.099545 587.810955 
L 320.319091 584.778045 
L 331.538636 596.909682 
L 342.758182 596.151455 
L 353.977727 593.876773 
L 365.197273 590.085636 
L 376.416818 596.909682 
L 387.636364 597.667909 
L 398.855909 597.667909 
L 410.075455 596.151455 
L 421.295 602.217273 
L 432.514545 599.942591 
L 443.734091 600.700818 
L 454.953636 599.184364 
L 466.173182 605.250182 
L 477.392727 607.524864 
L 488.612273 607.524864 
L 499.831818 604.491955 
L 511.051364 602.9755 
L 522.270909 602.217273 
L 533.490455 604.491955 
L 544.71 602.217273 
L 555.929545 596.909682 
L 567.149091 600.700818 
L 578.368636 593.876773 
L 589.588182 599.942591 
L 600.807727 596.909682 
L 612.027273 599.942591 
L 623.246818 596.151455 
L 634.466364 606.008409 
L 645.685909 599.184364 
L 656.905455 605.250182 
L 668.125 611.316 
L 679.344545 607.524864 
L 690.564091 613.590682 
L 701.783636 605.250182 
L 713.003182 612.074227 
L 724.222727 615.865364 
L 735.442273 616.623591 
L 746.661818 623.447636 
L 757.881364 624.964091 
L 769.100909 622.689409 
L 780.320455 628.755227 
L 791.54 627.997 
L 802.759545 631.029909 
L 813.979091 633.304591 
L 825.198636 637.095727 
L 836.418182 643.161545 
L 847.637727 640.886864 
L 858.857273 642.403318 
L 870.076818 643.919773 
L 881.296364 644.678 
L 892.515909 643.161545 
L 903.735455 646.194455 
L 914.955 646.952682 
L 926.174545 646.952682 
L 937.394091 646.194455 
L 948.613636 646.952682 
L 959.833182 646.194455 
L 971.052727 645.436227 
L 982.272273 646.952682 
L 993.491818 646.952682 
L 1004.711364 647.710909 
L 1015.930909 647.710909 
L 1027.150455 646.952682 
L 1038.37 647.710909 
L 1049.589545 647.710909 
L 1060.809091 647.710909 
L 1072.028636 647.710909 
L 1083.248182 647.710909 
L 1094.467727 647.710909 
L 1105.687273 647.710909 
L 1116.906818 647.710909 
L 1128.126364 647.710909 
L 1139.345909 647.710909 
L 1150.565455 647.710909 
L 1161.785 646.952682 
L 1173.004545 647.710909 
L 1184.224091 647.710909 
L 1195.443636 646.952682 
L 1206.663182 647.710909 
L 1217.882727 646.952682 
L 1229.102273 646.952682 
" style="fill:none;stroke:#8c564b;stroke-linecap:square;stroke-width:1.5;"/>
            </g>
            <g id="line2d_22">
                <path clip-path="url(#p5d56ad0f83)" d="M 107.147727 571.888182
L 118.367273 647.710909 
L 129.586818 647.710909 
L 140.806364 646.952682 
L 152.025909 647.710909 
L 163.245455 646.952682 
L 174.465 647.710909 
L 185.684545 647.710909 
L 196.904091 647.710909 
L 208.123636 646.952682 
L 219.343182 646.952682 
L 230.562727 647.710909 
L 241.782273 646.194455 
L 253.001818 646.194455 
L 264.221364 647.710909 
L 275.440909 645.436227 
L 286.660455 646.952682 
L 297.88 647.710909 
L 309.099545 646.952682 
L 320.319091 646.194455 
L 331.538636 646.194455 
L 342.758182 647.710909 
L 353.977727 647.710909 
L 365.197273 647.710909 
L 376.416818 647.710909 
L 387.636364 646.952682 
L 398.855909 647.710909 
L 410.075455 646.952682 
L 421.295 646.952682 
L 432.514545 647.710909 
L 443.734091 647.710909 
L 454.953636 647.710909 
L 466.173182 647.710909 
L 477.392727 646.194455 
L 488.612273 646.952682 
L 499.831818 647.710909 
L 511.051364 645.436227 
L 522.270909 646.952682 
L 533.490455 645.436227 
L 544.71 647.710909 
L 555.929545 647.710909 
L 567.149091 646.952682 
L 578.368636 645.436227 
L 589.588182 646.194455 
L 600.807727 646.952682 
L 612.027273 643.919773 
L 623.246818 645.436227 
L 634.466364 645.436227 
L 645.685909 646.952682 
L 656.905455 646.952682 
L 668.125 647.710909 
L 679.344545 646.952682 
L 690.564091 644.678 
L 701.783636 646.194455 
L 713.003182 646.194455 
L 724.222727 646.952682 
L 735.442273 643.161545 
L 746.661818 644.678 
L 757.881364 646.194455 
L 769.100909 643.919773 
L 780.320455 640.886864 
L 791.54 641.645091 
L 802.759545 642.403318 
L 813.979091 637.853955 
L 825.198636 639.370409 
L 836.418182 640.128636 
L 847.637727 635.579273 
L 858.857273 628.755227 
L 870.076818 623.447636 
L 881.296364 619.6565 
L 892.515909 613.590682 
L 903.735455 609.041318 
L 914.955 605.250182 
L 926.174545 602.9755 
L 937.394091 600.700818 
L 948.613636 599.184364 
L 959.833182 597.667909 
L 971.052727 594.635 
L 982.272273 591.602091 
L 993.491818 588.569182 
L 1004.711364 587.810955 
L 1015.930909 587.052727 
L 1027.150455 586.2945 
L 1038.37 587.052727 
L 1049.589545 586.2945 
L 1060.809091 585.536273 
L 1072.028636 582.503364 
L 1083.248182 581.745136 
L 1094.467727 581.745136 
L 1105.687273 580.986909 
L 1116.906818 580.228682 
L 1128.126364 578.712227 
L 1139.345909 578.712227 
L 1150.565455 578.712227 
L 1161.785 576.437545 
L 1173.004545 577.195773 
L 1184.224091 576.437545 
L 1195.443636 575.679318 
L 1206.663182 576.437545 
L 1217.882727 574.921091 
L 1229.102273 574.162864 
" style="fill:none;stroke:#e377c2;stroke-linecap:square;stroke-width:1.5;"/>
            </g>
            <g id="patch_3">
                <path d="M 51.05 678.04
L 51.05 10.8 
" style="fill:none;stroke:#000000;stroke-linecap:square;stroke-linejoin:miter;stroke-width:0.8;"/>
            </g>
            <g id="patch_4">
                <path d="M 1285.2 678.04
L 1285.2 10.8 
" style="fill:none;stroke:#000000;stroke-linecap:square;stroke-linejoin:miter;stroke-width:0.8;"/>
            </g>
            <g id="patch_5">
                <path d="M 51.05 678.04
L 1285.2 678.04 
" style="fill:none;stroke:#000000;stroke-linecap:square;stroke-linejoin:miter;stroke-width:0.8;"/>
            </g>
            <g id="patch_6">
                <path d="M 51.05 10.8
L 1285.2 10.8 
" style="fill:none;stroke:#000000;stroke-linecap:square;stroke-linejoin:miter;stroke-width:0.8;"/>
            </g>
            <g id="legend_1">
                <g id="patch_7">
                    <path d="M 1160.329688 121.546875
L 1278.2 121.546875 
Q 1280.2 121.546875 1280.2 119.546875 
L 1280.2 17.8 
Q 1280.2 15.8 1278.2 15.8 
L 1160.329688 15.8 
Q 1158.329688 15.8 1158.329688 17.8 
L 1158.329688 119.546875 
Q 1158.329688 121.546875 1160.329688 121.546875 
z
" style="fill:#ffffff;opacity:0.8;stroke:#cccccc;stroke-linejoin:miter;"/>
                </g>
                <g id="line2d_23">
                    <path d="M 1162.329688 23.898438
L 1182.329688 23.898438 
" style="fill:none;stroke:#1f77b4;stroke-linecap:square;stroke-width:1.5;"/>
                </g>
                <g id="line2d_24"/>
                <g id="text_18">
                    <!-- 0 hit attached TC -->
                    <g transform="translate(1190.329688 27.398438)scale(0.1 -0.1)">
                        <defs>
                            <path d="M 54.890625 33.015625
L 54.890625 0 
L 45.90625 0 
L 45.90625 32.71875 
Q 45.90625 40.484375 42.875 44.328125 
Q 39.84375 48.1875 33.796875 48.1875 
Q 26.515625 48.1875 22.3125 43.546875 
Q 18.109375 38.921875 18.109375 30.90625 
L 18.109375 0 
L 9.078125 0 
L 9.078125 75.984375 
L 18.109375 75.984375 
L 18.109375 46.1875 
Q 21.34375 51.125 25.703125 53.5625 
Q 30.078125 56 35.796875 56 
Q 45.21875 56 50.046875 50.171875 
Q 54.890625 44.34375 54.890625 33.015625 
z
" id="DejaVuSans-104"/>
                            <path d="M 18.3125 70.21875
L 18.3125 54.6875 
L 36.8125 54.6875 
L 36.8125 47.703125 
L 18.3125 47.703125 
L 18.3125 18.015625 
Q 18.3125 11.328125 20.140625 9.421875 
Q 21.96875 7.515625 27.59375 7.515625 
L 36.8125 7.515625 
L 36.8125 0 
L 27.59375 0 
Q 17.1875 0 13.234375 3.875 
Q 9.28125 7.765625 9.28125 18.015625 
L 9.28125 47.703125 
L 2.6875 47.703125 
L 2.6875 54.6875 
L 9.28125 54.6875 
L 9.28125 70.21875 
z
" id="DejaVuSans-116"/>
                            <path d="M 34.28125 27.484375
Q 23.390625 27.484375 19.1875 25 
Q 14.984375 22.515625 14.984375 16.5 
Q 14.984375 11.71875 18.140625 8.90625 
Q 21.296875 6.109375 26.703125 6.109375 
Q 34.1875 6.109375 38.703125 11.40625 
Q 43.21875 16.703125 43.21875 25.484375 
L 43.21875 27.484375 
z
M 52.203125 31.203125 
L 52.203125 0 
L 43.21875 0 
L 43.21875 8.296875 
Q 40.140625 3.328125 35.546875 0.953125 
Q 30.953125 -1.421875 24.3125 -1.421875 
Q 15.921875 -1.421875 10.953125 3.296875 
Q 6 8.015625 6 15.921875 
Q 6 25.140625 12.171875 29.828125 
Q 18.359375 34.515625 30.609375 34.515625 
L 43.21875 34.515625 
L 43.21875 35.40625 
Q 43.21875 41.609375 39.140625 45 
Q 35.0625 48.390625 27.6875 48.390625 
Q 23 48.390625 18.546875 47.265625 
Q 14.109375 46.140625 10.015625 43.890625 
L 10.015625 52.203125 
Q 14.9375 54.109375 19.578125 55.046875 
Q 24.21875 56 28.609375 56 
Q 40.484375 56 46.34375 49.84375 
Q 52.203125 43.703125 52.203125 31.203125 
z
" id="DejaVuSans-97"/>
                            <path d="M 45.40625 46.390625
L 45.40625 75.984375 
L 54.390625 75.984375 
L 54.390625 0 
L 45.40625 0 
L 45.40625 8.203125 
Q 42.578125 3.328125 38.25 0.953125 
Q 33.9375 -1.421875 27.875 -1.421875 
Q 17.96875 -1.421875 11.734375 6.484375 
Q 5.515625 14.40625 5.515625 27.296875 
Q 5.515625 40.1875 11.734375 48.09375 
Q 17.96875 56 27.875 56 
Q 33.9375 56 38.25 53.625 
Q 42.578125 51.265625 45.40625 46.390625 
z
M 14.796875 27.296875 
Q 14.796875 17.390625 18.875 11.75 
Q 22.953125 6.109375 30.078125 6.109375 
Q 37.203125 6.109375 41.296875 11.75 
Q 45.40625 17.390625 45.40625 27.296875 
Q 45.40625 37.203125 41.296875 42.84375 
Q 37.203125 48.484375 30.078125 48.484375 
Q 22.953125 48.484375 18.875 42.84375 
Q 14.796875 37.203125 14.796875 27.296875 
z
" id="DejaVuSans-100"/>
                            <path d="M 64.40625 67.28125
L 64.40625 56.890625 
Q 59.421875 61.53125 53.78125 63.8125 
Q 48.140625 66.109375 41.796875 66.109375 
Q 29.296875 66.109375 22.65625 58.46875 
Q 16.015625 50.828125 16.015625 36.375 
Q 16.015625 21.96875 22.65625 14.328125 
Q 29.296875 6.6875 41.796875 6.6875 
Q 48.140625 6.6875 53.78125 8.984375 
Q 59.421875 11.28125 64.40625 15.921875 
L 64.40625 5.609375 
Q 59.234375 2.09375 53.4375 0.328125 
Q 47.65625 -1.421875 41.21875 -1.421875 
Q 24.65625 -1.421875 15.125 8.703125 
Q 5.609375 18.84375 5.609375 36.375 
Q 5.609375 53.953125 15.125 64.078125 
Q 24.65625 74.21875 41.21875 74.21875 
Q 47.75 74.21875 53.53125 72.484375 
Q 59.328125 70.75 64.40625 67.28125 
z
" id="DejaVuSans-67"/>
                        </defs>
                        <use xlink:href="#DejaVuSans-48"/>
                        <use x="63.623047" xlink:href="#DejaVuSans-32"/>
                        <use x="95.410156" xlink:href="#DejaVuSans-104"/>
                        <use x="158.789062" xlink:href="#DejaVuSans-105"/>
                        <use x="186.572266" xlink:href="#DejaVuSans-116"/>
                        <use x="225.78125" xlink:href="#DejaVuSans-32"/>
                        <use x="257.568359" xlink:href="#DejaVuSans-97"/>
                        <use x="318.847656" xlink:href="#DejaVuSans-116"/>
                        <use x="358.056641" xlink:href="#DejaVuSans-116"/>
                        <use x="397.265625" xlink:href="#DejaVuSans-97"/>
                        <use x="458.544922" xlink:href="#DejaVuSans-99"/>
                        <use x="513.525391" xlink:href="#DejaVuSans-104"/>
                        <use x="576.904297" xlink:href="#DejaVuSans-101"/>
                        <use x="638.427734" xlink:href="#DejaVuSans-100"/>
                        <use x="701.904297" xlink:href="#DejaVuSans-32"/>
                        <use x="733.691406" xlink:href="#DejaVuSans-84"/>
                        <use x="788.900391" xlink:href="#DejaVuSans-67"/>
                    </g>
                </g>
                <g id="line2d_25">
                    <path d="M 1162.329688 38.576563
L 1182.329688 38.576563 
" style="fill:none;stroke:#ff7f0e;stroke-linecap:square;stroke-width:1.5;"/>
                </g>
                <g id="line2d_26"/>
                <g id="text_19">
                    <!-- 1 hit attached TC -->
                    <g transform="translate(1190.329688 42.076563)scale(0.1 -0.1)">
                        <use xlink:href="#DejaVuSans-49"/>
                        <use x="63.623047" xlink:href="#DejaVuSans-32"/>
                        <use x="95.410156" xlink:href="#DejaVuSans-104"/>
                        <use x="158.789062" xlink:href="#DejaVuSans-105"/>
                        <use x="186.572266" xlink:href="#DejaVuSans-116"/>
                        <use x="225.78125" xlink:href="#DejaVuSans-32"/>
                        <use x="257.568359" xlink:href="#DejaVuSans-97"/>
                        <use x="318.847656" xlink:href="#DejaVuSans-116"/>
                        <use x="358.056641" xlink:href="#DejaVuSans-116"/>
                        <use x="397.265625" xlink:href="#DejaVuSans-97"/>
                        <use x="458.544922" xlink:href="#DejaVuSans-99"/>
                        <use x="513.525391" xlink:href="#DejaVuSans-104"/>
                        <use x="576.904297" xlink:href="#DejaVuSans-101"/>
                        <use x="638.427734" xlink:href="#DejaVuSans-100"/>
                        <use x="701.904297" xlink:href="#DejaVuSans-32"/>
                        <use x="733.691406" xlink:href="#DejaVuSans-84"/>
                        <use x="788.900391" xlink:href="#DejaVuSans-67"/>
                    </g>
                </g>
                <g id="line2d_27">
                    <path d="M 1162.329688 53.254688
L 1182.329688 53.254688 
" style="fill:none;stroke:#2ca02c;stroke-linecap:square;stroke-width:1.5;"/>
                </g>
                <g id="line2d_28"/>
                <g id="text_20">
                    <!-- 2 hit attached TC -->
                    <g transform="translate(1190.329688 56.754688)scale(0.1 -0.1)">
                        <use xlink:href="#DejaVuSans-50"/>
                        <use x="63.623047" xlink:href="#DejaVuSans-32"/>
                        <use x="95.410156" xlink:href="#DejaVuSans-104"/>
                        <use x="158.789062" xlink:href="#DejaVuSans-105"/>
                        <use x="186.572266" xlink:href="#DejaVuSans-116"/>
                        <use x="225.78125" xlink:href="#DejaVuSans-32"/>
                        <use x="257.568359" xlink:href="#DejaVuSans-97"/>
                        <use x="318.847656" xlink:href="#DejaVuSans-116"/>
                        <use x="358.056641" xlink:href="#DejaVuSans-116"/>
                        <use x="397.265625" xlink:href="#DejaVuSans-97"/>
                        <use x="458.544922" xlink:href="#DejaVuSans-99"/>
                        <use x="513.525391" xlink:href="#DejaVuSans-104"/>
                        <use x="576.904297" xlink:href="#DejaVuSans-101"/>
                        <use x="638.427734" xlink:href="#DejaVuSans-100"/>
                        <use x="701.904297" xlink:href="#DejaVuSans-32"/>
                        <use x="733.691406" xlink:href="#DejaVuSans-84"/>
                        <use x="788.900391" xlink:href="#DejaVuSans-67"/>
                    </g>
                </g>
                <g id="line2d_29">
                    <path d="M 1162.329688 67.932812
L 1182.329688 67.932812 
" style="fill:none;stroke:#d62728;stroke-linecap:square;stroke-width:1.5;"/>
                </g>
                <g id="line2d_30"/>
                <g id="text_21">
                    <!-- Free 0 hit TC -->
                    <g transform="translate(1190.329688 71.432812)scale(0.1 -0.1)">
                        <defs>
                            <path d="M 9.8125 72.90625
L 51.703125 72.90625 
L 51.703125 64.59375 
L 19.671875 64.59375 
L 19.671875 43.109375 
L 48.578125 43.109375 
L 48.578125 34.8125 
L 19.671875 34.8125 
L 19.671875 0 
L 9.8125 0 
z
" id="DejaVuSans-70"/>
                            <path d="M 41.109375 46.296875
Q 39.59375 47.171875 37.8125 47.578125 
Q 36.03125 48 33.890625 48 
Q 26.265625 48 22.1875 43.046875 
Q 18.109375 38.09375 18.109375 28.8125 
L 18.109375 0 
L 9.078125 0 
L 9.078125 54.6875 
L 18.109375 54.6875 
L 18.109375 46.1875 
Q 20.953125 51.171875 25.484375 53.578125 
Q 30.03125 56 36.53125 56 
Q 37.453125 56 38.578125 55.875 
Q 39.703125 55.765625 41.0625 55.515625 
z
" id="DejaVuSans-114"/>
                        </defs>
                        <use xlink:href="#DejaVuSans-70"/>
                        <use x="50.269531" xlink:href="#DejaVuSans-114"/>
                        <use x="89.132812" xlink:href="#DejaVuSans-101"/>
                        <use x="150.65625" xlink:href="#DejaVuSans-101"/>
                        <use x="212.179688" xlink:href="#DejaVuSans-32"/>
                        <use x="243.966797" xlink:href="#DejaVuSans-48"/>
                        <use x="307.589844" xlink:href="#DejaVuSans-32"/>
                        <use x="339.376953" xlink:href="#DejaVuSans-104"/>
                        <use x="402.755859" xlink:href="#DejaVuSans-105"/>
                        <use x="430.539062" xlink:href="#DejaVuSans-116"/>
                        <use x="469.748047" xlink:href="#DejaVuSans-32"/>
                        <use x="501.535156" xlink:href="#DejaVuSans-84"/>
                        <use x="556.744141" xlink:href="#DejaVuSans-67"/>
                    </g>
                </g>
                <g id="line2d_31">
                    <path d="M 1162.329688 82.610937
L 1182.329688 82.610937 
" style="fill:none;stroke:#9467bd;stroke-linecap:square;stroke-width:1.5;"/>
                </g>
                <g id="line2d_32"/>
                <g id="text_22">
                    <!-- Free 1 hit TC -->
                    <g transform="translate(1190.329688 86.110937)scale(0.1 -0.1)">
                        <use xlink:href="#DejaVuSans-70"/>
                        <use x="50.269531" xlink:href="#DejaVuSans-114"/>
                        <use x="89.132812" xlink:href="#DejaVuSans-101"/>
                        <use x="150.65625" xlink:href="#DejaVuSans-101"/>
                        <use x="212.179688" xlink:href="#DejaVuSans-32"/>
                        <use x="243.966797" xlink:href="#DejaVuSans-49"/>
                        <use x="307.589844" xlink:href="#DejaVuSans-32"/>
                        <use x="339.376953" xlink:href="#DejaVuSans-104"/>
                        <use x="402.755859" xlink:href="#DejaVuSans-105"/>
                        <use x="430.539062" xlink:href="#DejaVuSans-116"/>
                        <use x="469.748047" xlink:href="#DejaVuSans-32"/>
                        <use x="501.535156" xlink:href="#DejaVuSans-84"/>
                        <use x="556.744141" xlink:href="#DejaVuSans-67"/>
                    </g>
                </g>
                <g id="line2d_33">
                    <path d="M 1162.329688 97.289062
L 1182.329688 97.289062 
" style="fill:none;stroke:#8c564b;stroke-linecap:square;stroke-width:1.5;"/>
                </g>
                <g id="line2d_34"/>
                <g id="text_23">
                    <!-- Free 2 hit TC -->
                    <g transform="translate(1190.329688 100.789062)scale(0.1 -0.1)">
                        <use xlink:href="#DejaVuSans-70"/>
                        <use x="50.269531" xlink:href="#DejaVuSans-114"/>
                        <use x="89.132812" xlink:href="#DejaVuSans-101"/>
                        <use x="150.65625" xlink:href="#DejaVuSans-101"/>
                        <use x="212.179688" xlink:href="#DejaVuSans-32"/>
                        <use x="243.966797" xlink:href="#DejaVuSans-50"/>
                        <use x="307.589844" xlink:href="#DejaVuSans-32"/>
                        <use x="339.376953" xlink:href="#DejaVuSans-104"/>
                        <use x="402.755859" xlink:href="#DejaVuSans-105"/>
                        <use x="430.539062" xlink:href="#DejaVuSans-116"/>
                        <use x="469.748047" xlink:href="#DejaVuSans-32"/>
                        <use x="501.535156" xlink:href="#DejaVuSans-84"/>
                        <use x="556.744141" xlink:href="#DejaVuSans-67"/>
                    </g>
                </g>
                <g id="line2d_35">
                    <path d="M 1162.329688 111.967188
L 1182.329688 111.967188 
" style="fill:none;stroke:#e377c2;stroke-linecap:square;stroke-width:1.5;"/>
                </g>
                <g id="line2d_36"/>
                <g id="text_24">
                    <!-- Free CTL -->
                    <g transform="translate(1190.329688 115.467188)scale(0.1 -0.1)">
                        <defs>
                            <path d="M 9.8125 72.90625
L 19.671875 72.90625 
L 19.671875 8.296875 
L 55.171875 8.296875 
L 55.171875 0 
L 9.8125 0 
z
" id="DejaVuSans-76"/>
                        </defs>
                        <use xlink:href="#DejaVuSans-70"/>
                        <use x="50.269531" xlink:href="#DejaVuSans-114"/>
                        <use x="89.132812" xlink:href="#DejaVuSans-101"/>
                        <use x="150.65625" xlink:href="#DejaVuSans-101"/>
                        <use x="212.179688" xlink:href="#DejaVuSans-32"/>
                        <use x="243.966797" xlink:href="#DejaVuSans-67"/>
                        <use x="313.791016" xlink:href="#DejaVuSans-84"/>
                        <use x="374.875" xlink:href="#DejaVuSans-76"/>
                    </g>
                </g>
            </g>
        </g>
    </g>
    <defs>
        <clipPath id="p5d56ad0f83">
            <rect height="667.24" width="1234.15" x="51.05" y="10.8"/>
        </clipPath>
    </defs>
</svg>
