<?xml version="1.0" encoding="utf-8" standalone="no"?>
<!DOCTYPE svg PUBLIC "-//W3C//DTD SVG 1.1//EN"
        "http://www.w3.org/Graphics/SVG/1.1/DTD/svg11.dtd">
<!-- Created with matplotlib (https://matplotlib.org/) -->
<svg xmlns:xlink="http://www.w3.org/1999/xlink" height="720pt" version="1.1" viewBox="0 0 1296 720" width="1296pt"
     xmlns="http://www.w3.org/2000/svg">
    <metadata>
        <rdf:RDF xmlns:cc="http://creativecommons.org/ns#" xmlns:dc="http://purl.org/dc/elements/1.1/"
                 xmlns:rdf="http://www.w3.org/1999/02/22-rdf-syntax-ns#">
            <cc:Work>
                <dc:type rdf:resource="http://purl.org/dc/dcmitype/StillImage"/>
                <dc:date>2021-06-17T14:56:21.865609</dc:date>
                <dc:format>image/svg+xml</dc:format>
                <dc:creator>
                    <cc:Agent>
                        <dc:title>Matplotlib v3.3.4, https://matplotlib.org/</dc:title>
                    </cc:Agent>
                </dc:creator>
            </cc:Work>
        </rdf:RDF>
    </metadata>
    <defs>
        <style type="text/css">*{stroke-linecap:butt;stroke-linejoin:round;}</style>
    </defs>
    <g id="figure_1">
        <g id="patch_1">
            <path d="M 0 720
L 1296 720 
L 1296 0 
L 0 0 
z
" style="fill:#ffffff;"/>
        </g>
        <g id="axes_1">
            <g id="patch_2">
                <path d="M 57.44 678.04
L 1285.2 678.04 
L 1285.2 10.8 
L 57.44 10.8 
z
" style="fill:#ffffff;"/>
            </g>
            <g id="matplotlib.axis_1">
                <g id="xtick_1">
                    <g id="line2d_1">
                        <defs>
                            <path d="M 0 0
L 0 3.5 
" id="mf6df4a37bf" style="stroke:#000000;stroke-width:0.8;"/>
                        </defs>
                        <g>
                            <use style="stroke:#000000;stroke-width:0.8;" x="113.247273" xlink:href="#mf6df4a37bf"
                                 y="678.04"/>
                        </g>
                    </g>
                    <g id="text_1">
                        <!-- 0 -->
                        <g transform="translate(110.066023 692.638438)scale(0.1 -0.1)">
                            <defs>
                                <path d="M 31.78125 66.40625
Q 24.171875 66.40625 20.328125 58.90625 
Q 16.5 51.421875 16.5 36.375 
Q 16.5 21.390625 20.328125 13.890625 
Q 24.171875 6.390625 31.78125 6.390625 
Q 39.453125 6.390625 43.28125 13.890625 
Q 47.125 21.390625 47.125 36.375 
Q 47.125 51.421875 43.28125 58.90625 
Q 39.453125 66.40625 31.78125 66.40625 
z
M 31.78125 74.21875 
Q 44.046875 74.21875 50.515625 64.515625 
Q 56.984375 54.828125 56.984375 36.375 
Q 56.984375 17.96875 50.515625 8.265625 
Q 44.046875 -1.421875 31.78125 -1.421875 
Q 19.53125 -1.421875 13.0625 8.265625 
Q 6.59375 17.96875 6.59375 36.375 
Q 6.59375 54.828125 13.0625 64.515625 
Q 19.53125 74.21875 31.78125 74.21875 
z
" id="DejaVuSans-48"/>
                            </defs>
                            <use xlink:href="#DejaVuSans-48"/>
                        </g>
                    </g>
                </g>
                <g id="xtick_2">
                    <g id="line2d_2">
                        <g>
                            <use style="stroke:#000000;stroke-width:0.8;" x="345.777576" xlink:href="#mf6df4a37bf"
                                 y="678.04"/>
                        </g>
                    </g>
                    <g id="text_2">
                        <!-- 5 -->
                        <g transform="translate(342.596326 692.638438)scale(0.1 -0.1)">
                            <defs>
                                <path d="M 10.796875 72.90625
L 49.515625 72.90625 
L 49.515625 64.59375 
L 19.828125 64.59375 
L 19.828125 46.734375 
Q 21.96875 47.46875 24.109375 47.828125 
Q 26.265625 48.1875 28.421875 48.1875 
Q 40.625 48.1875 47.75 41.5 
Q 54.890625 34.8125 54.890625 23.390625 
Q 54.890625 11.625 47.5625 5.09375 
Q 40.234375 -1.421875 26.90625 -1.421875 
Q 22.3125 -1.421875 17.546875 -0.640625 
Q 12.796875 0.140625 7.71875 1.703125 
L 7.71875 11.625 
Q 12.109375 9.234375 16.796875 8.0625 
Q 21.484375 6.890625 26.703125 6.890625 
Q 35.15625 6.890625 40.078125 11.328125 
Q 45.015625 15.765625 45.015625 23.390625 
Q 45.015625 31 40.078125 35.4375 
Q 35.15625 39.890625 26.703125 39.890625 
Q 22.75 39.890625 18.8125 39.015625 
Q 14.890625 38.140625 10.796875 36.28125 
z
" id="DejaVuSans-53"/>
                            </defs>
                            <use xlink:href="#DejaVuSans-53"/>
                        </g>
                    </g>
                </g>
                <g id="xtick_3">
                    <g id="line2d_3">
                        <g>
                            <use style="stroke:#000000;stroke-width:0.8;" x="578.307879" xlink:href="#mf6df4a37bf"
                                 y="678.04"/>
                        </g>
                    </g>
                    <g id="text_3">
                        <!-- 10 -->
                        <g transform="translate(571.945379 692.638438)scale(0.1 -0.1)">
                            <defs>
                                <path d="M 12.40625 8.296875
L 28.515625 8.296875 
L 28.515625 63.921875 
L 10.984375 60.40625 
L 10.984375 69.390625 
L 28.421875 72.90625 
L 38.28125 72.90625 
L 38.28125 8.296875 
L 54.390625 8.296875 
L 54.390625 0 
L 12.40625 0 
z
" id="DejaVuSans-49"/>
                            </defs>
                            <use xlink:href="#DejaVuSans-49"/>
                            <use x="63.623047" xlink:href="#DejaVuSans-48"/>
                        </g>
                    </g>
                </g>
                <g id="xtick_4">
                    <g id="line2d_4">
                        <g>
                            <use style="stroke:#000000;stroke-width:0.8;" x="810.838182" xlink:href="#mf6df4a37bf"
                                 y="678.04"/>
                        </g>
                    </g>
                    <g id="text_4">
                        <!-- 15 -->
                        <g transform="translate(804.475682 692.638438)scale(0.1 -0.1)">
                            <use xlink:href="#DejaVuSans-49"/>
                            <use x="63.623047" xlink:href="#DejaVuSans-53"/>
                        </g>
                    </g>
                </g>
                <g id="xtick_5">
                    <g id="line2d_5">
                        <g>
                            <use style="stroke:#000000;stroke-width:0.8;" x="1043.368485" xlink:href="#mf6df4a37bf"
                                 y="678.04"/>
                        </g>
                    </g>
                    <g id="text_5">
                        <!-- 20 -->
                        <g transform="translate(1037.005985 692.638438)scale(0.1 -0.1)">
                            <defs>
                                <path d="M 19.1875 8.296875
L 53.609375 8.296875 
L 53.609375 0 
L 7.328125 0 
L 7.328125 8.296875 
Q 12.9375 14.109375 22.625 23.890625 
Q 32.328125 33.6875 34.8125 36.53125 
Q 39.546875 41.84375 41.421875 45.53125 
Q 43.3125 49.21875 43.3125 52.78125 
Q 43.3125 58.59375 39.234375 62.25 
Q 35.15625 65.921875 28.609375 65.921875 
Q 23.96875 65.921875 18.8125 64.3125 
Q 13.671875 62.703125 7.8125 59.421875 
L 7.8125 69.390625 
Q 13.765625 71.78125 18.9375 73 
Q 24.125 74.21875 28.421875 74.21875 
Q 39.75 74.21875 46.484375 68.546875 
Q 53.21875 62.890625 53.21875 53.421875 
Q 53.21875 48.921875 51.53125 44.890625 
Q 49.859375 40.875 45.40625 35.40625 
Q 44.1875 33.984375 37.640625 27.21875 
Q 31.109375 20.453125 19.1875 8.296875 
z
" id="DejaVuSans-50"/>
                            </defs>
                            <use xlink:href="#DejaVuSans-50"/>
                            <use x="63.623047" xlink:href="#DejaVuSans-48"/>
                        </g>
                    </g>
                </g>
                <g id="xtick_6">
                    <g id="line2d_6">
                        <g>
                            <use style="stroke:#000000;stroke-width:0.8;" x="1275.898788" xlink:href="#mf6df4a37bf"
                                 y="678.04"/>
                        </g>
                    </g>
                    <g id="text_6">
                        <!-- 25 -->
                        <g transform="translate(1269.536288 692.638438)scale(0.1 -0.1)">
                            <use xlink:href="#DejaVuSans-50"/>
                            <use x="63.623047" xlink:href="#DejaVuSans-53"/>
                        </g>
                    </g>
                </g>
                <g id="text_7">
                    <!-- Time -->
                    <g transform="translate(659.086406 706.316563)scale(0.1 -0.1)">
                        <defs>
                            <path d="M -0.296875 72.90625
L 61.375 72.90625 
L 61.375 64.59375 
L 35.5 64.59375 
L 35.5 0 
L 25.59375 0 
L 25.59375 64.59375 
L -0.296875 64.59375 
z
" id="DejaVuSans-84"/>
                            <path d="M 9.421875 54.6875
L 18.40625 54.6875 
L 18.40625 0 
L 9.421875 0 
z
M 9.421875 75.984375 
L 18.40625 75.984375 
L 18.40625 64.59375 
L 9.421875 64.59375 
z
" id="DejaVuSans-105"/>
                            <path d="M 52 44.1875
Q 55.375 50.25 60.0625 53.125 
Q 64.75 56 71.09375 56 
Q 79.640625 56 84.28125 50.015625 
Q 88.921875 44.046875 88.921875 33.015625 
L 88.921875 0 
L 79.890625 0 
L 79.890625 32.71875 
Q 79.890625 40.578125 77.09375 44.375 
Q 74.3125 48.1875 68.609375 48.1875 
Q 61.625 48.1875 57.5625 43.546875 
Q 53.515625 38.921875 53.515625 30.90625 
L 53.515625 0 
L 44.484375 0 
L 44.484375 32.71875 
Q 44.484375 40.625 41.703125 44.40625 
Q 38.921875 48.1875 33.109375 48.1875 
Q 26.21875 48.1875 22.15625 43.53125 
Q 18.109375 38.875 18.109375 30.90625 
L 18.109375 0 
L 9.078125 0 
L 9.078125 54.6875 
L 18.109375 54.6875 
L 18.109375 46.1875 
Q 21.1875 51.21875 25.484375 53.609375 
Q 29.78125 56 35.6875 56 
Q 41.65625 56 45.828125 52.96875 
Q 50 49.953125 52 44.1875 
z
" id="DejaVuSans-109"/>
                            <path d="M 56.203125 29.59375
L 56.203125 25.203125 
L 14.890625 25.203125 
Q 15.484375 15.921875 20.484375 11.0625 
Q 25.484375 6.203125 34.421875 6.203125 
Q 39.59375 6.203125 44.453125 7.46875 
Q 49.3125 8.734375 54.109375 11.28125 
L 54.109375 2.78125 
Q 49.265625 0.734375 44.1875 -0.34375 
Q 39.109375 -1.421875 33.890625 -1.421875 
Q 20.796875 -1.421875 13.15625 6.1875 
Q 5.515625 13.8125 5.515625 26.8125 
Q 5.515625 40.234375 12.765625 48.109375 
Q 20.015625 56 32.328125 56 
Q 43.359375 56 49.78125 48.890625 
Q 56.203125 41.796875 56.203125 29.59375 
z
M 47.21875 32.234375 
Q 47.125 39.59375 43.09375 43.984375 
Q 39.0625 48.390625 32.421875 48.390625 
Q 24.90625 48.390625 20.390625 44.140625 
Q 15.875 39.890625 15.1875 32.171875 
z
" id="DejaVuSans-101"/>
                        </defs>
                        <use xlink:href="#DejaVuSans-84"/>
                        <use x="57.958984" xlink:href="#DejaVuSans-105"/>
                        <use x="85.742188" xlink:href="#DejaVuSans-109"/>
                        <use x="183.154297" xlink:href="#DejaVuSans-101"/>
                    </g>
                </g>
            </g>
            <g id="matplotlib.axis_2">
                <g id="ytick_1">
                    <g id="line2d_7">
                        <defs>
                            <path d="M 0 0
L -3.5 0 
" id="m42110a1d4e" style="stroke:#000000;stroke-width:0.8;"/>
                        </defs>
                        <g>
                            <use style="stroke:#000000;stroke-width:0.8;" x="57.44" xlink:href="#m42110a1d4e"
                                 y="647.710909"/>
                        </g>
                    </g>
                    <g id="text_8">
                        <!-- 0 -->
                        <g transform="translate(44.0775 651.510128)scale(0.1 -0.1)">
                            <use xlink:href="#DejaVuSans-48"/>
                        </g>
                    </g>
                </g>
                <g id="ytick_2">
                    <g id="line2d_8">
                        <g>
                            <use style="stroke:#000000;stroke-width:0.8;" x="57.44" xlink:href="#m42110a1d4e"
                                 y="542.492901"/>
                        </g>
                    </g>
                    <g id="text_9">
                        <!-- 200 -->
                        <g transform="translate(31.3525 546.292119)scale(0.1 -0.1)">
                            <use xlink:href="#DejaVuSans-50"/>
                            <use x="63.623047" xlink:href="#DejaVuSans-48"/>
                            <use x="127.246094" xlink:href="#DejaVuSans-48"/>
                        </g>
                    </g>
                </g>
                <g id="ytick_3">
                    <g id="line2d_9">
                        <g>
                            <use style="stroke:#000000;stroke-width:0.8;" x="57.44" xlink:href="#m42110a1d4e"
                                 y="437.274892"/>
                        </g>
                    </g>
                    <g id="text_10">
                        <!-- 400 -->
                        <g transform="translate(31.3525 441.074111)scale(0.1 -0.1)">
                            <defs>
                                <path d="M 37.796875 64.3125
L 12.890625 25.390625 
L 37.796875 25.390625 
z
M 35.203125 72.90625 
L 47.609375 72.90625 
L 47.609375 25.390625 
L 58.015625 25.390625 
L 58.015625 17.1875 
L 47.609375 17.1875 
L 47.609375 0 
L 37.796875 0 
L 37.796875 17.1875 
L 4.890625 17.1875 
L 4.890625 26.703125 
z
" id="DejaVuSans-52"/>
                            </defs>
                            <use xlink:href="#DejaVuSans-52"/>
                            <use x="63.623047" xlink:href="#DejaVuSans-48"/>
                            <use x="127.246094" xlink:href="#DejaVuSans-48"/>
                        </g>
                    </g>
                </g>
                <g id="ytick_4">
                    <g id="line2d_10">
                        <g>
                            <use style="stroke:#000000;stroke-width:0.8;" x="57.44" xlink:href="#m42110a1d4e"
                                 y="332.056884"/>
                        </g>
                    </g>
                    <g id="text_11">
                        <!-- 600 -->
                        <g transform="translate(31.3525 335.856103)scale(0.1 -0.1)">
                            <defs>
                                <path d="M 33.015625 40.375
Q 26.375 40.375 22.484375 35.828125 
Q 18.609375 31.296875 18.609375 23.390625 
Q 18.609375 15.53125 22.484375 10.953125 
Q 26.375 6.390625 33.015625 6.390625 
Q 39.65625 6.390625 43.53125 10.953125 
Q 47.40625 15.53125 47.40625 23.390625 
Q 47.40625 31.296875 43.53125 35.828125 
Q 39.65625 40.375 33.015625 40.375 
z
M 52.59375 71.296875 
L 52.59375 62.3125 
Q 48.875 64.0625 45.09375 64.984375 
Q 41.3125 65.921875 37.59375 65.921875 
Q 27.828125 65.921875 22.671875 59.328125 
Q 17.53125 52.734375 16.796875 39.40625 
Q 19.671875 43.65625 24.015625 45.921875 
Q 28.375 48.1875 33.59375 48.1875 
Q 44.578125 48.1875 50.953125 41.515625 
Q 57.328125 34.859375 57.328125 23.390625 
Q 57.328125 12.15625 50.6875 5.359375 
Q 44.046875 -1.421875 33.015625 -1.421875 
Q 20.359375 -1.421875 13.671875 8.265625 
Q 6.984375 17.96875 6.984375 36.375 
Q 6.984375 53.65625 15.1875 63.9375 
Q 23.390625 74.21875 37.203125 74.21875 
Q 40.921875 74.21875 44.703125 73.484375 
Q 48.484375 72.75 52.59375 71.296875 
z
" id="DejaVuSans-54"/>
                            </defs>
                            <use xlink:href="#DejaVuSans-54"/>
                            <use x="63.623047" xlink:href="#DejaVuSans-48"/>
                            <use x="127.246094" xlink:href="#DejaVuSans-48"/>
                        </g>
                    </g>
                </g>
                <g id="ytick_5">
                    <g id="line2d_11">
                        <g>
                            <use style="stroke:#000000;stroke-width:0.8;" x="57.44" xlink:href="#m42110a1d4e"
                                 y="226.838876"/>
                        </g>
                    </g>
                    <g id="text_12">
                        <!-- 800 -->
                        <g transform="translate(31.3525 230.638094)scale(0.1 -0.1)">
                            <defs>
                                <path d="M 31.78125 34.625
Q 24.75 34.625 20.71875 30.859375 
Q 16.703125 27.09375 16.703125 20.515625 
Q 16.703125 13.921875 20.71875 10.15625 
Q 24.75 6.390625 31.78125 6.390625 
Q 38.8125 6.390625 42.859375 10.171875 
Q 46.921875 13.96875 46.921875 20.515625 
Q 46.921875 27.09375 42.890625 30.859375 
Q 38.875 34.625 31.78125 34.625 
z
M 21.921875 38.8125 
Q 15.578125 40.375 12.03125 44.71875 
Q 8.5 49.078125 8.5 55.328125 
Q 8.5 64.0625 14.71875 69.140625 
Q 20.953125 74.21875 31.78125 74.21875 
Q 42.671875 74.21875 48.875 69.140625 
Q 55.078125 64.0625 55.078125 55.328125 
Q 55.078125 49.078125 51.53125 44.71875 
Q 48 40.375 41.703125 38.8125 
Q 48.828125 37.15625 52.796875 32.3125 
Q 56.78125 27.484375 56.78125 20.515625 
Q 56.78125 9.90625 50.3125 4.234375 
Q 43.84375 -1.421875 31.78125 -1.421875 
Q 19.734375 -1.421875 13.25 4.234375 
Q 6.78125 9.90625 6.78125 20.515625 
Q 6.78125 27.484375 10.78125 32.3125 
Q 14.796875 37.15625 21.921875 38.8125 
z
M 18.3125 54.390625 
Q 18.3125 48.734375 21.84375 45.5625 
Q 25.390625 42.390625 31.78125 42.390625 
Q 38.140625 42.390625 41.71875 45.5625 
Q 45.3125 48.734375 45.3125 54.390625 
Q 45.3125 60.0625 41.71875 63.234375 
Q 38.140625 66.40625 31.78125 66.40625 
Q 25.390625 66.40625 21.84375 63.234375 
Q 18.3125 60.0625 18.3125 54.390625 
z
" id="DejaVuSans-56"/>
                            </defs>
                            <use xlink:href="#DejaVuSans-56"/>
                            <use x="63.623047" xlink:href="#DejaVuSans-48"/>
                            <use x="127.246094" xlink:href="#DejaVuSans-48"/>
                        </g>
                    </g>
                </g>
                <g id="ytick_6">
                    <g id="line2d_12">
                        <g>
                            <use style="stroke:#000000;stroke-width:0.8;" x="57.44" xlink:href="#m42110a1d4e"
                                 y="121.620867"/>
                        </g>
                    </g>
                    <g id="text_13">
                        <!-- 1000 -->
                        <g transform="translate(24.99 125.420086)scale(0.1 -0.1)">
                            <use xlink:href="#DejaVuSans-49"/>
                            <use x="63.623047" xlink:href="#DejaVuSans-48"/>
                            <use x="127.246094" xlink:href="#DejaVuSans-48"/>
                            <use x="190.869141" xlink:href="#DejaVuSans-48"/>
                        </g>
                    </g>
                </g>
                <g id="ytick_7">
                    <g id="line2d_13">
                        <g>
                            <use style="stroke:#000000;stroke-width:0.8;" x="57.44" xlink:href="#m42110a1d4e"
                                 y="16.402859"/>
                        </g>
                    </g>
                    <g id="text_14">
                        <!-- 1200 -->
                        <g transform="translate(24.99 20.202078)scale(0.1 -0.1)">
                            <use xlink:href="#DejaVuSans-49"/>
                            <use x="63.623047" xlink:href="#DejaVuSans-50"/>
                            <use x="127.246094" xlink:href="#DejaVuSans-48"/>
                            <use x="190.869141" xlink:href="#DejaVuSans-48"/>
                        </g>
                    </g>
                </g>
                <g id="text_15">
                    <!-- Value -->
                    <g transform="translate(18.910312 358.15125)rotate(-90)scale(0.1 -0.1)">
                        <defs>
                            <path d="M 28.609375 0
L 0.78125 72.90625 
L 11.078125 72.90625 
L 34.1875 11.53125 
L 57.328125 72.90625 
L 67.578125 72.90625 
L 39.796875 0 
z
" id="DejaVuSans-86"/>
                            <path d="M 34.28125 27.484375
Q 23.390625 27.484375 19.1875 25 
Q 14.984375 22.515625 14.984375 16.5 
Q 14.984375 11.71875 18.140625 8.90625 
Q 21.296875 6.109375 26.703125 6.109375 
Q 34.1875 6.109375 38.703125 11.40625 
Q 43.21875 16.703125 43.21875 25.484375 
L 43.21875 27.484375 
z
M 52.203125 31.203125 
L 52.203125 0 
L 43.21875 0 
L 43.21875 8.296875 
Q 40.140625 3.328125 35.546875 0.953125 
Q 30.953125 -1.421875 24.3125 -1.421875 
Q 15.921875 -1.421875 10.953125 3.296875 
Q 6 8.015625 6 15.921875 
Q 6 25.140625 12.171875 29.828125 
Q 18.359375 34.515625 30.609375 34.515625 
L 43.21875 34.515625 
L 43.21875 35.40625 
Q 43.21875 41.609375 39.140625 45 
Q 35.0625 48.390625 27.6875 48.390625 
Q 23 48.390625 18.546875 47.265625 
Q 14.109375 46.140625 10.015625 43.890625 
L 10.015625 52.203125 
Q 14.9375 54.109375 19.578125 55.046875 
Q 24.21875 56 28.609375 56 
Q 40.484375 56 46.34375 49.84375 
Q 52.203125 43.703125 52.203125 31.203125 
z
" id="DejaVuSans-97"/>
                            <path d="M 9.421875 75.984375
L 18.40625 75.984375 
L 18.40625 0 
L 9.421875 0 
z
" id="DejaVuSans-108"/>
                            <path d="M 8.5 21.578125
L 8.5 54.6875 
L 17.484375 54.6875 
L 17.484375 21.921875 
Q 17.484375 14.15625 20.5 10.265625 
Q 23.53125 6.390625 29.59375 6.390625 
Q 36.859375 6.390625 41.078125 11.03125 
Q 45.3125 15.671875 45.3125 23.6875 
L 45.3125 54.6875 
L 54.296875 54.6875 
L 54.296875 0 
L 45.3125 0 
L 45.3125 8.40625 
Q 42.046875 3.421875 37.71875 1 
Q 33.40625 -1.421875 27.6875 -1.421875 
Q 18.265625 -1.421875 13.375 4.4375 
Q 8.5 10.296875 8.5 21.578125 
z
M 31.109375 56 
z
" id="DejaVuSans-117"/>
                        </defs>
                        <use xlink:href="#DejaVuSans-86"/>
                        <use x="60.658203" xlink:href="#DejaVuSans-97"/>
                        <use x="121.9375" xlink:href="#DejaVuSans-108"/>
                        <use x="149.720703" xlink:href="#DejaVuSans-117"/>
                        <use x="213.099609" xlink:href="#DejaVuSans-101"/>
                    </g>
                </g>
            </g>
            <g id="line2d_14">
                <path clip-path="url(#p6ad85217e5)" d="M 113.247273 647.710909
L 124.408727 614.041146 
L 135.570182 626.141217 
L 146.731636 616.671597 
L 157.893091 624.036857 
L 169.054545 618.775957 
L 180.216 615.619417 
L 191.377455 618.775957 
L 202.538909 615.093327 
L 213.700364 615.093327 
L 224.861818 620.880317 
L 236.023273 618.249867 
L 247.184727 622.458587 
L 258.346182 619.302047 
L 269.507636 615.093327 
L 280.669091 619.828137 
L 291.830545 617.723777 
L 302.992 624.036857 
L 314.153455 619.828137 
L 325.314909 621.406407 
L 336.476364 613.515056 
L 347.637818 622.458587 
L 358.799273 621.932497 
L 369.960727 618.249867 
L 381.122182 616.671597 
L 392.283636 618.775957 
L 403.445091 620.880317 
L 414.606545 616.671597 
L 425.768 621.406407 
L 436.929455 618.775957 
L 448.090909 618.249867 
L 459.252364 620.880317 
L 470.413818 617.197687 
L 481.575273 619.302047 
L 492.736727 622.984677 
L 503.898182 614.041146 
L 515.059636 616.145507 
L 526.221091 618.249867 
L 537.382545 618.775957 
L 548.544 621.406407 
L 559.705455 616.671597 
L 570.866909 620.880317 
L 582.028364 624.036857 
L 593.189818 617.723777 
L 604.351273 619.828137 
L 615.512727 621.406407 
L 626.674182 614.567236 
L 637.835636 614.567236 
L 648.997091 621.406407 
L 660.158545 621.932497 
L 671.32 616.145507 
L 682.481455 619.828137 
L 693.642909 618.249867 
L 704.804364 621.406407 
L 715.965818 624.036857 
L 727.127273 619.302047 
L 738.288727 616.671597 
L 749.450182 618.775957 
L 760.611636 616.145507 
L 771.773091 617.723777 
L 782.934545 618.775957 
L 794.096 619.828137 
L 805.257455 623.510767 
L 816.418909 620.354227 
L 827.580364 615.619417 
L 838.741818 617.723777 
L 849.903273 616.145507 
L 861.064727 622.458587 
L 872.226182 617.723777 
L 883.387636 621.406407 
L 894.549091 618.775957 
L 905.710545 618.775957 
L 916.872 615.619417 
L 928.033455 619.828137 
L 939.194909 623.510767 
L 950.356364 617.197687 
L 961.517818 617.197687 
L 972.679273 618.249867 
L 983.840727 619.302047 
L 995.002182 614.567236 
L 1006.163636 617.197687 
L 1017.325091 614.041146 
L 1028.486545 623.510767 
L 1039.648 617.723777 
L 1050.809455 621.932497 
L 1061.970909 625.615127 
L 1073.132364 620.354227 
L 1084.293818 622.458587 
L 1095.455273 621.406407 
L 1106.616727 617.723777 
L 1117.778182 624.562947 
L 1128.939636 617.723777 
L 1140.101091 618.249867 
L 1151.262545 623.510767 
L 1162.424 621.932497 
L 1173.585455 617.197687 
L 1184.746909 620.354227 
L 1195.908364 620.354227 
L 1207.069818 612.988966 
L 1218.231273 618.775957 
L 1229.392727 615.093327 
" style="fill:none;stroke:#1f77b4;stroke-linecap:square;stroke-width:1.5;"/>
            </g>
            <g id="line2d_15">
                <path clip-path="url(#p6ad85217e5)" d="M 113.247273 647.710909
L 124.408727 634.558658 
L 135.570182 628.245578 
L 146.731636 632.980388 
L 157.893091 631.928208 
L 169.054545 631.402118 
L 180.216 635.084748 
L 191.377455 632.454298 
L 202.538909 636.136928 
L 213.700364 638.767378 
L 224.861818 629.823848 
L 236.023273 632.980388 
L 247.184727 632.454298 
L 258.346182 632.980388 
L 269.507636 636.136928 
L 280.669091 635.084748 
L 291.830545 631.928208 
L 302.992 628.771668 
L 314.153455 634.032568 
L 325.314909 631.928208 
L 336.476364 638.767378 
L 347.637818 630.876028 
L 358.799273 631.928208 
L 369.960727 630.876028 
L 381.122182 636.136928 
L 392.283636 631.402118 
L 403.445091 632.454298 
L 414.606545 635.084748 
L 425.768 632.980388 
L 436.929455 631.402118 
L 448.090909 631.402118 
L 459.252364 630.349938 
L 470.413818 637.189108 
L 481.575273 632.980388 
L 492.736727 632.454298 
L 503.898182 635.610838 
L 515.059636 637.189108 
L 526.221091 632.980388 
L 537.382545 630.876028 
L 548.544 628.245578 
L 559.705455 635.084748 
L 570.866909 632.980388 
L 582.028364 631.402118 
L 593.189818 635.084748 
L 604.351273 632.980388 
L 615.512727 630.349938 
L 626.674182 641.397829 
L 637.835636 635.610838 
L 648.997091 629.297758 
L 660.158545 628.771668 
L 671.32 635.084748 
L 682.481455 636.663018 
L 693.642909 636.136928 
L 704.804364 632.454298 
L 715.965818 629.823848 
L 727.127273 631.402118 
L 738.288727 635.084748 
L 749.450182 633.506478 
L 760.611636 634.558658 
L 771.773091 635.084748 
L 782.934545 633.506478 
L 794.096 631.928208 
L 805.257455 634.032568 
L 816.418909 631.402118 
L 827.580364 634.558658 
L 838.741818 636.136928 
L 849.903273 633.506478 
L 861.064727 630.876028 
L 872.226182 631.928208 
L 883.387636 632.980388 
L 894.549091 630.876028 
L 905.710545 632.980388 
L 916.872 638.241288 
L 928.033455 636.136928 
L 939.194909 627.719488 
L 950.356364 638.241288 
L 961.517818 634.558658 
L 972.679273 631.402118 
L 983.840727 632.980388 
L 995.002182 635.610838 
L 1006.163636 632.980388 
L 1017.325091 639.819558 
L 1028.486545 631.402118 
L 1039.648 634.032568 
L 1050.809455 629.823848 
L 1061.970909 628.245578 
L 1073.132364 632.454298 
L 1084.293818 632.980388 
L 1095.455273 633.506478 
L 1106.616727 634.558658 
L 1117.778182 628.771668 
L 1128.939636 637.715198 
L 1140.101091 635.610838 
L 1151.262545 631.928208 
L 1162.424 631.928208 
L 1173.585455 635.084748 
L 1184.746909 631.402118 
L 1195.908364 632.454298 
L 1207.069818 636.663018 
L 1218.231273 634.558658 
L 1229.392727 635.610838 
" style="fill:none;stroke:#ff7f0e;stroke-linecap:square;stroke-width:1.5;"/>
            </g>
            <g id="line2d_16">
                <path clip-path="url(#p6ad85217e5)" d="M 113.247273 647.710909
L 124.408727 641.923919 
L 135.570182 636.136928 
L 146.731636 640.871739 
L 157.893091 635.084748 
L 169.054545 640.871739 
L 180.216 639.819558 
L 191.377455 639.819558 
L 202.538909 639.819558 
L 213.700364 637.189108 
L 224.861818 639.819558 
L 236.023273 639.293468 
L 247.184727 635.610838 
L 258.346182 638.767378 
L 269.507636 639.293468 
L 280.669091 635.610838 
L 291.830545 640.871739 
L 302.992 637.715198 
L 314.153455 637.189108 
L 325.314909 637.189108 
L 336.476364 638.767378 
L 347.637818 637.715198 
L 358.799273 637.189108 
L 369.960727 641.923919 
L 381.122182 637.715198 
L 392.283636 640.345649 
L 403.445091 637.189108 
L 414.606545 639.293468 
L 425.768 636.663018 
L 436.929455 640.345649 
L 448.090909 641.397829 
L 459.252364 639.819558 
L 470.413818 636.663018 
L 481.575273 638.767378 
L 492.736727 635.084748 
L 503.898182 640.871739 
L 515.059636 637.715198 
L 526.221091 639.293468 
L 537.382545 640.871739 
L 548.544 641.397829 
L 559.705455 638.767378 
L 570.866909 637.189108 
L 582.028364 635.610838 
L 593.189818 637.715198 
L 604.351273 637.715198 
L 615.512727 638.767378 
L 626.674182 634.558658 
L 637.835636 640.871739 
L 648.997091 640.345649 
L 660.158545 639.819558 
L 671.32 639.293468 
L 682.481455 634.558658 
L 693.642909 636.136928 
L 704.804364 636.663018 
L 715.965818 636.663018 
L 727.127273 640.345649 
L 738.288727 639.293468 
L 749.450182 638.241288 
L 760.611636 639.819558 
L 771.773091 637.715198 
L 782.934545 638.241288 
L 794.096 638.767378 
L 805.257455 633.506478 
L 816.418909 638.767378 
L 827.580364 640.345649 
L 838.741818 636.663018 
L 849.903273 640.871739 
L 861.064727 638.241288 
L 872.226182 640.871739 
L 883.387636 636.136928 
L 894.549091 641.397829 
L 905.710545 638.767378 
L 916.872 637.189108 
L 928.033455 635.084748 
L 939.194909 639.293468 
L 950.356364 636.136928 
L 961.517818 639.293468 
L 972.679273 641.397829 
L 983.840727 638.767378 
L 995.002182 640.345649 
L 1006.163636 640.871739 
L 1017.325091 638.241288 
L 1028.486545 636.136928 
L 1039.648 638.767378 
L 1050.809455 638.767378 
L 1061.970909 636.663018 
L 1073.132364 637.715198 
L 1084.293818 635.610838 
L 1095.455273 635.610838 
L 1106.616727 638.241288 
L 1117.778182 637.189108 
L 1128.939636 635.610838 
L 1140.101091 637.189108 
L 1151.262545 635.610838 
L 1162.424 636.663018 
L 1173.585455 638.241288 
L 1184.746909 639.293468 
L 1195.908364 638.241288 
L 1207.069818 640.871739 
L 1218.231273 637.189108 
L 1229.392727 639.819558 
" style="fill:none;stroke:#2ca02c;stroke-linecap:square;stroke-width:1.5;"/>
            </g>
            <g id="line2d_17">
                <path clip-path="url(#p6ad85217e5)" d="M 113.247273 226.838876
L 124.408727 286.28705 
L 135.570182 283.6566 
L 146.731636 291.021861 
L 157.893091 291.021861 
L 169.054545 290.495771 
L 180.216 285.76096 
L 191.377455 285.23487 
L 202.538909 288.391411 
L 213.700364 277.86961 
L 224.861818 277.34352 
L 236.023273 277.34352 
L 247.184727 274.186979 
L 258.346182 272.608709 
L 269.507636 269.452169 
L 280.669091 264.717359 
L 291.830545 263.665179 
L 302.992 261.560818 
L 314.153455 262.086908 
L 325.314909 256.826008 
L 336.476364 259.456458 
L 347.637818 255.773828 
L 358.799273 249.460747 
L 369.960727 251.565108 
L 381.122182 249.986837 
L 392.283636 246.304207 
L 403.445091 239.991127 
L 414.606545 241.043307 
L 425.768 237.360676 
L 436.929455 237.886767 
L 448.090909 235.782406 
L 459.252364 234.204136 
L 470.413818 229.995416 
L 481.575273 223.682335 
L 492.736727 223.156245 
L 503.898182 227.891056 
L 515.059636 219.473615 
L 526.221091 222.104065 
L 537.382545 221.051885 
L 548.544 213.686625 
L 559.705455 215.264895 
L 570.866909 215.790985 
L 582.028364 210.530084 
L 593.189818 215.264895 
L 604.351273 209.477904 
L 615.512727 211.582264 
L 626.674182 207.899634 
L 637.835636 207.899634 
L 648.997091 201.060464 
L 660.158545 202.112644 
L 671.32 198.956103 
L 682.481455 198.430013 
L 693.642909 196.851743 
L 704.804364 195.799563 
L 715.965818 195.273473 
L 727.127273 192.116933 
L 738.288727 187.908213 
L 749.450182 185.803852 
L 760.611636 176.860322 
L 771.773091 170.547241 
L 782.934545 168.968971 
L 794.096 164.760251 
L 805.257455 162.655891 
L 816.418909 167.390701 
L 827.580364 157.39499 
L 838.741818 156.34281 
L 849.903273 156.34281 
L 861.064727 155.29063 
L 872.226182 155.29063 
L 883.387636 148.977549 
L 894.549091 143.190559 
L 905.710545 143.716649 
L 916.872 140.560109 
L 928.033455 135.299208 
L 939.194909 129.512218 
L 950.356364 126.881768 
L 961.517818 124.777408 
L 972.679273 118.990417 
L 983.840727 115.307787 
L 995.002182 115.833877 
L 1006.163636 105.312076 
L 1017.325091 103.207716 
L 1028.486545 98.998996 
L 1039.648 98.998996 
L 1050.809455 96.368545 
L 1061.970909 92.685915 
L 1073.132364 89.003285 
L 1084.293818 85.846744 
L 1095.455273 83.216294 
L 1106.616727 85.846744 
L 1117.778182 78.481484 
L 1128.939636 73.746673 
L 1140.101091 67.959683 
L 1151.262545 62.172693 
L 1162.424 61.646603 
L 1173.585455 60.068332 
L 1184.746909 57.963972 
L 1195.908364 51.650892 
L 1207.069818 50.072622 
L 1218.231273 41.129091 
L 1229.392727 45.337811 
" style="fill:none;stroke:#d62728;stroke-linecap:square;stroke-width:1.5;"/>
            </g>
            <g id="line2d_18">
                <path clip-path="url(#p6ad85217e5)" d="M 113.247273 647.710909
L 124.408727 640.871739 
L 135.570182 642.976099 
L 146.731636 634.032568 
L 157.893091 634.032568 
L 169.054545 634.032568 
L 180.216 637.189108 
L 191.377455 636.663018 
L 202.538909 628.771668 
L 213.700364 635.084748 
L 224.861818 637.715198 
L 236.023273 631.928208 
L 247.184727 632.454298 
L 258.346182 633.506478 
L 269.507636 636.136928 
L 280.669091 637.715198 
L 291.830545 637.189108 
L 302.992 638.241288 
L 314.153455 634.558658 
L 325.314909 637.189108 
L 336.476364 635.084748 
L 347.637818 634.032568 
L 358.799273 639.293468 
L 369.960727 638.241288 
L 381.122182 635.084748 
L 392.283636 636.663018 
L 403.445091 638.767378 
L 414.606545 637.189108 
L 425.768 635.084748 
L 436.929455 636.136928 
L 448.090909 635.084748 
L 459.252364 636.663018 
L 470.413818 636.136928 
L 481.575273 639.819558 
L 492.736727 637.715198 
L 503.898182 633.506478 
L 515.059636 636.663018 
L 526.221091 636.136928 
L 537.382545 633.506478 
L 548.544 639.293468 
L 559.705455 636.663018 
L 570.866909 636.663018 
L 582.028364 638.241288 
L 593.189818 632.454298 
L 604.351273 637.715198 
L 615.512727 635.084748 
L 626.674182 635.084748 
L 637.835636 634.558658 
L 648.997091 636.136928 
L 660.158545 634.558658 
L 671.32 635.610838 
L 682.481455 633.506478 
L 693.642909 637.189108 
L 704.804364 637.189108 
L 715.965818 632.980388 
L 727.127273 632.980388 
L 738.288727 633.506478 
L 749.450182 629.823848 
L 760.611636 637.715198 
L 771.773091 638.241288 
L 782.934545 634.032568 
L 794.096 636.663018 
L 805.257455 639.293468 
L 816.418909 630.349938 
L 827.580364 639.819558 
L 838.741818 638.767378 
L 849.903273 635.084748 
L 861.064727 634.032568 
L 872.226182 631.928208 
L 883.387636 637.189108 
L 894.549091 640.345649 
L 905.710545 636.136928 
L 916.872 634.558658 
L 928.033455 637.189108 
L 939.194909 634.032568 
L 950.356364 632.454298 
L 961.517818 635.084748 
L 972.679273 634.032568 
L 983.840727 637.189108 
L 995.002182 629.823848 
L 1006.163636 637.715198 
L 1017.325091 635.610838 
L 1028.486545 638.767378 
L 1039.648 638.241288 
L 1050.809455 632.980388 
L 1061.970909 630.876028 
L 1073.132364 636.136928 
L 1084.293818 632.980388 
L 1095.455273 635.084748 
L 1106.616727 630.876028 
L 1117.778182 637.715198 
L 1128.939636 629.823848 
L 1140.101091 634.558658 
L 1151.262545 634.032568 
L 1162.424 632.980388 
L 1173.585455 634.032568 
L 1184.746909 634.558658 
L 1195.908364 635.084748 
L 1207.069818 634.558658 
L 1218.231273 631.402118 
L 1229.392727 627.719488 
" style="fill:none;stroke:#9467bd;stroke-linecap:square;stroke-width:1.5;"/>
            </g>
            <g id="line2d_19">
                <path clip-path="url(#p6ad85217e5)" d="M 113.247273 647.710909
L 124.408727 646.658729 
L 135.570182 644.554369 
L 146.731636 644.028279 
L 157.893091 642.450009 
L 169.054545 642.976099 
L 180.216 641.923919 
L 191.377455 639.293468 
L 202.538909 642.450009 
L 213.700364 644.028279 
L 224.861818 641.397829 
L 236.023273 642.976099 
L 247.184727 644.554369 
L 258.346182 645.080459 
L 269.507636 642.450009 
L 280.669091 643.502189 
L 291.830545 642.450009 
L 302.992 643.502189 
L 314.153455 644.028279 
L 325.314909 644.554369 
L 336.476364 640.345649 
L 347.637818 640.871739 
L 358.799273 640.871739 
L 369.960727 641.923919 
L 381.122182 644.028279 
L 392.283636 644.028279 
L 403.445091 644.554369 
L 414.606545 642.976099 
L 425.768 644.554369 
L 436.929455 642.976099 
L 448.090909 642.976099 
L 459.252364 641.397829 
L 470.413818 644.028279 
L 481.575273 642.450009 
L 492.736727 643.502189 
L 503.898182 644.028279 
L 515.059636 644.028279 
L 526.221091 642.976099 
L 537.382545 643.502189 
L 548.544 643.502189 
L 559.705455 645.606549 
L 570.866909 643.502189 
L 582.028364 644.554369 
L 593.189818 644.554369 
L 604.351273 641.397829 
L 615.512727 642.976099 
L 626.674182 644.554369 
L 637.835636 642.976099 
L 648.997091 645.080459 
L 660.158545 645.080459 
L 671.32 642.976099 
L 682.481455 642.976099 
L 693.642909 640.871739 
L 704.804364 640.871739 
L 715.965818 644.028279 
L 727.127273 642.976099 
L 738.288727 642.976099 
L 749.450182 644.028279 
L 760.611636 641.923919 
L 771.773091 641.923919 
L 782.934545 644.554369 
L 794.096 644.028279 
L 805.257455 642.450009 
L 816.418909 642.976099 
L 827.580364 644.554369 
L 838.741818 643.502189 
L 849.903273 644.554369 
L 861.064727 642.976099 
L 872.226182 644.554369 
L 883.387636 640.345649 
L 894.549091 641.923919 
L 905.710545 642.450009 
L 916.872 642.976099 
L 928.033455 640.871739 
L 939.194909 645.080459 
L 950.356364 644.554369 
L 961.517818 642.450009 
L 972.679273 645.080459 
L 983.840727 644.028279 
L 995.002182 645.606549 
L 1006.163636 644.554369 
L 1017.325091 641.923919 
L 1028.486545 641.923919 
L 1039.648 639.819558 
L 1050.809455 641.923919 
L 1061.970909 645.080459 
L 1073.132364 640.871739 
L 1084.293818 643.502189 
L 1095.455273 640.345649 
L 1106.616727 641.923919 
L 1117.778182 640.345649 
L 1128.939636 645.606549 
L 1140.101091 643.502189 
L 1151.262545 645.606549 
L 1162.424 645.080459 
L 1173.585455 643.502189 
L 1184.746909 641.397829 
L 1195.908364 642.450009 
L 1207.069818 641.923919 
L 1218.231273 645.080459 
L 1229.392727 641.923919 
" style="fill:none;stroke:#8c564b;stroke-linecap:square;stroke-width:1.5;"/>
            </g>
            <g id="line2d_20">
                <path clip-path="url(#p6ad85217e5)" d="M 113.247273 595.101905
L 124.408727 647.710909 
L 135.570182 647.710909 
L 146.731636 647.710909 
L 157.893091 647.184819 
L 169.054545 647.184819 
L 180.216 647.710909 
L 191.377455 647.184819 
L 202.538909 647.184819 
L 213.700364 647.184819 
L 224.861818 647.710909 
L 236.023273 647.710909 
L 247.184727 647.710909 
L 258.346182 647.184819 
L 269.507636 647.710909 
L 280.669091 647.710909 
L 291.830545 647.710909 
L 302.992 647.710909 
L 314.153455 647.184819 
L 325.314909 647.710909 
L 336.476364 647.184819 
L 347.637818 647.184819 
L 358.799273 647.184819 
L 369.960727 647.184819 
L 381.122182 647.710909 
L 392.283636 647.710909 
L 403.445091 647.710909 
L 414.606545 647.184819 
L 425.768 647.184819 
L 436.929455 647.710909 
L 448.090909 647.184819 
L 459.252364 647.184819 
L 470.413818 647.184819 
L 481.575273 647.184819 
L 492.736727 647.710909 
L 503.898182 647.710909 
L 515.059636 647.184819 
L 526.221091 647.710909 
L 537.382545 647.710909 
L 548.544 647.184819 
L 559.705455 647.710909 
L 570.866909 647.184819 
L 582.028364 647.184819 
L 593.189818 647.710909 
L 604.351273 647.710909 
L 615.512727 647.710909 
L 626.674182 647.710909 
L 637.835636 647.184819 
L 648.997091 647.184819 
L 660.158545 647.710909 
L 671.32 647.710909 
L 682.481455 647.184819 
L 693.642909 647.710909 
L 704.804364 647.710909 
L 715.965818 647.710909 
L 727.127273 647.184819 
L 738.288727 647.184819 
L 749.450182 647.710909 
L 760.611636 647.710909 
L 771.773091 647.710909 
L 782.934545 647.710909 
L 794.096 647.710909 
L 805.257455 647.184819 
L 816.418909 647.710909 
L 827.580364 647.710909 
L 838.741818 647.710909 
L 849.903273 647.710909 
L 861.064727 646.658729 
L 872.226182 647.710909 
L 883.387636 647.710909 
L 894.549091 647.184819 
L 905.710545 647.710909 
L 916.872 647.184819 
L 928.033455 647.184819 
L 939.194909 647.710909 
L 950.356364 646.658729 
L 961.517818 647.184819 
L 972.679273 647.184819 
L 983.840727 647.184819 
L 995.002182 647.710909 
L 1006.163636 647.184819 
L 1017.325091 646.132639 
L 1028.486545 647.184819 
L 1039.648 647.710909 
L 1050.809455 647.710909 
L 1061.970909 647.710909 
L 1073.132364 647.710909 
L 1084.293818 647.184819 
L 1095.455273 647.710909 
L 1106.616727 647.710909 
L 1117.778182 647.710909 
L 1128.939636 647.184819 
L 1140.101091 647.184819 
L 1151.262545 647.184819 
L 1162.424 647.710909 
L 1173.585455 647.710909 
L 1184.746909 647.184819 
L 1195.908364 647.184819 
L 1207.069818 647.710909 
L 1218.231273 647.710909 
L 1229.392727 647.710909 
" style="fill:none;stroke:#e377c2;stroke-linecap:square;stroke-width:1.5;"/>
            </g>
            <g id="patch_3">
                <path d="M 57.44 678.04
L 57.44 10.8 
" style="fill:none;stroke:#000000;stroke-linecap:square;stroke-linejoin:miter;stroke-width:0.8;"/>
            </g>
            <g id="patch_4">
                <path d="M 1285.2 678.04
L 1285.2 10.8 
" style="fill:none;stroke:#000000;stroke-linecap:square;stroke-linejoin:miter;stroke-width:0.8;"/>
            </g>
            <g id="patch_5">
                <path d="M 57.44 678.04
L 1285.2 678.04 
" style="fill:none;stroke:#000000;stroke-linecap:square;stroke-linejoin:miter;stroke-width:0.8;"/>
            </g>
            <g id="patch_6">
                <path d="M 57.44 10.8
L 1285.2 10.8 
" style="fill:none;stroke:#000000;stroke-linecap:square;stroke-linejoin:miter;stroke-width:0.8;"/>
            </g>
            <g id="legend_1">
                <g id="patch_7">
                    <path d="M 64.44 121.546875
L 182.310313 121.546875 
Q 184.310313 121.546875 184.310313 119.546875 
L 184.310313 17.8 
Q 184.310313 15.8 182.310313 15.8 
L 64.44 15.8 
Q 62.44 15.8 62.44 17.8 
L 62.44 119.546875 
Q 62.44 121.546875 64.44 121.546875 
z
" style="fill:#ffffff;opacity:0.8;stroke:#cccccc;stroke-linejoin:miter;"/>
                </g>
                <g id="line2d_21">
                    <path d="M 66.44 23.898438
L 86.44 23.898438 
" style="fill:none;stroke:#1f77b4;stroke-linecap:square;stroke-width:1.5;"/>
                </g>
                <g id="line2d_22"/>
                <g id="text_16">
                    <!-- 0 hit attached TC -->
                    <g transform="translate(94.44 27.398438)scale(0.1 -0.1)">
                        <defs>
                            <path id="DejaVuSans-32"/>
                            <path d="M 54.890625 33.015625
L 54.890625 0 
L 45.90625 0 
L 45.90625 32.71875 
Q 45.90625 40.484375 42.875 44.328125 
Q 39.84375 48.1875 33.796875 48.1875 
Q 26.515625 48.1875 22.3125 43.546875 
Q 18.109375 38.921875 18.109375 30.90625 
L 18.109375 0 
L 9.078125 0 
L 9.078125 75.984375 
L 18.109375 75.984375 
L 18.109375 46.1875 
Q 21.34375 51.125 25.703125 53.5625 
Q 30.078125 56 35.796875 56 
Q 45.21875 56 50.046875 50.171875 
Q 54.890625 44.34375 54.890625 33.015625 
z
" id="DejaVuSans-104"/>
                            <path d="M 18.3125 70.21875
L 18.3125 54.6875 
L 36.8125 54.6875 
L 36.8125 47.703125 
L 18.3125 47.703125 
L 18.3125 18.015625 
Q 18.3125 11.328125 20.140625 9.421875 
Q 21.96875 7.515625 27.59375 7.515625 
L 36.8125 7.515625 
L 36.8125 0 
L 27.59375 0 
Q 17.1875 0 13.234375 3.875 
Q 9.28125 7.765625 9.28125 18.015625 
L 9.28125 47.703125 
L 2.6875 47.703125 
L 2.6875 54.6875 
L 9.28125 54.6875 
L 9.28125 70.21875 
z
" id="DejaVuSans-116"/>
                            <path d="M 48.78125 52.59375
L 48.78125 44.1875 
Q 44.96875 46.296875 41.140625 47.34375 
Q 37.3125 48.390625 33.40625 48.390625 
Q 24.65625 48.390625 19.8125 42.84375 
Q 14.984375 37.3125 14.984375 27.296875 
Q 14.984375 17.28125 19.8125 11.734375 
Q 24.65625 6.203125 33.40625 6.203125 
Q 37.3125 6.203125 41.140625 7.25 
Q 44.96875 8.296875 48.78125 10.40625 
L 48.78125 2.09375 
Q 45.015625 0.34375 40.984375 -0.53125 
Q 36.96875 -1.421875 32.421875 -1.421875 
Q 20.0625 -1.421875 12.78125 6.34375 
Q 5.515625 14.109375 5.515625 27.296875 
Q 5.515625 40.671875 12.859375 48.328125 
Q 20.21875 56 33.015625 56 
Q 37.15625 56 41.109375 55.140625 
Q 45.0625 54.296875 48.78125 52.59375 
z
" id="DejaVuSans-99"/>
                            <path d="M 45.40625 46.390625
L 45.40625 75.984375 
L 54.390625 75.984375 
L 54.390625 0 
L 45.40625 0 
L 45.40625 8.203125 
Q 42.578125 3.328125 38.25 0.953125 
Q 33.9375 -1.421875 27.875 -1.421875 
Q 17.96875 -1.421875 11.734375 6.484375 
Q 5.515625 14.40625 5.515625 27.296875 
Q 5.515625 40.1875 11.734375 48.09375 
Q 17.96875 56 27.875 56 
Q 33.9375 56 38.25 53.625 
Q 42.578125 51.265625 45.40625 46.390625 
z
M 14.796875 27.296875 
Q 14.796875 17.390625 18.875 11.75 
Q 22.953125 6.109375 30.078125 6.109375 
Q 37.203125 6.109375 41.296875 11.75 
Q 45.40625 17.390625 45.40625 27.296875 
Q 45.40625 37.203125 41.296875 42.84375 
Q 37.203125 48.484375 30.078125 48.484375 
Q 22.953125 48.484375 18.875 42.84375 
Q 14.796875 37.203125 14.796875 27.296875 
z
" id="DejaVuSans-100"/>
                            <path d="M 64.40625 67.28125
L 64.40625 56.890625 
Q 59.421875 61.53125 53.78125 63.8125 
Q 48.140625 66.109375 41.796875 66.109375 
Q 29.296875 66.109375 22.65625 58.46875 
Q 16.015625 50.828125 16.015625 36.375 
Q 16.015625 21.96875 22.65625 14.328125 
Q 29.296875 6.6875 41.796875 6.6875 
Q 48.140625 6.6875 53.78125 8.984375 
Q 59.421875 11.28125 64.40625 15.921875 
L 64.40625 5.609375 
Q 59.234375 2.09375 53.4375 0.328125 
Q 47.65625 -1.421875 41.21875 -1.421875 
Q 24.65625 -1.421875 15.125 8.703125 
Q 5.609375 18.84375 5.609375 36.375 
Q 5.609375 53.953125 15.125 64.078125 
Q 24.65625 74.21875 41.21875 74.21875 
Q 47.75 74.21875 53.53125 72.484375 
Q 59.328125 70.75 64.40625 67.28125 
z
" id="DejaVuSans-67"/>
                        </defs>
                        <use xlink:href="#DejaVuSans-48"/>
                        <use x="63.623047" xlink:href="#DejaVuSans-32"/>
                        <use x="95.410156" xlink:href="#DejaVuSans-104"/>
                        <use x="158.789062" xlink:href="#DejaVuSans-105"/>
                        <use x="186.572266" xlink:href="#DejaVuSans-116"/>
                        <use x="225.78125" xlink:href="#DejaVuSans-32"/>
                        <use x="257.568359" xlink:href="#DejaVuSans-97"/>
                        <use x="318.847656" xlink:href="#DejaVuSans-116"/>
                        <use x="358.056641" xlink:href="#DejaVuSans-116"/>
                        <use x="397.265625" xlink:href="#DejaVuSans-97"/>
                        <use x="458.544922" xlink:href="#DejaVuSans-99"/>
                        <use x="513.525391" xlink:href="#DejaVuSans-104"/>
                        <use x="576.904297" xlink:href="#DejaVuSans-101"/>
                        <use x="638.427734" xlink:href="#DejaVuSans-100"/>
                        <use x="701.904297" xlink:href="#DejaVuSans-32"/>
                        <use x="733.691406" xlink:href="#DejaVuSans-84"/>
                        <use x="788.900391" xlink:href="#DejaVuSans-67"/>
                    </g>
                </g>
                <g id="line2d_23">
                    <path d="M 66.44 38.576563
L 86.44 38.576563 
" style="fill:none;stroke:#ff7f0e;stroke-linecap:square;stroke-width:1.5;"/>
                </g>
                <g id="line2d_24"/>
                <g id="text_17">
                    <!-- 1 hit attached TC -->
                    <g transform="translate(94.44 42.076563)scale(0.1 -0.1)">
                        <use xlink:href="#DejaVuSans-49"/>
                        <use x="63.623047" xlink:href="#DejaVuSans-32"/>
                        <use x="95.410156" xlink:href="#DejaVuSans-104"/>
                        <use x="158.789062" xlink:href="#DejaVuSans-105"/>
                        <use x="186.572266" xlink:href="#DejaVuSans-116"/>
                        <use x="225.78125" xlink:href="#DejaVuSans-32"/>
                        <use x="257.568359" xlink:href="#DejaVuSans-97"/>
                        <use x="318.847656" xlink:href="#DejaVuSans-116"/>
                        <use x="358.056641" xlink:href="#DejaVuSans-116"/>
                        <use x="397.265625" xlink:href="#DejaVuSans-97"/>
                        <use x="458.544922" xlink:href="#DejaVuSans-99"/>
                        <use x="513.525391" xlink:href="#DejaVuSans-104"/>
                        <use x="576.904297" xlink:href="#DejaVuSans-101"/>
                        <use x="638.427734" xlink:href="#DejaVuSans-100"/>
                        <use x="701.904297" xlink:href="#DejaVuSans-32"/>
                        <use x="733.691406" xlink:href="#DejaVuSans-84"/>
                        <use x="788.900391" xlink:href="#DejaVuSans-67"/>
                    </g>
                </g>
                <g id="line2d_25">
                    <path d="M 66.44 53.254688
L 86.44 53.254688 
" style="fill:none;stroke:#2ca02c;stroke-linecap:square;stroke-width:1.5;"/>
                </g>
                <g id="line2d_26"/>
                <g id="text_18">
                    <!-- 2 hit attached TC -->
                    <g transform="translate(94.44 56.754688)scale(0.1 -0.1)">
                        <use xlink:href="#DejaVuSans-50"/>
                        <use x="63.623047" xlink:href="#DejaVuSans-32"/>
                        <use x="95.410156" xlink:href="#DejaVuSans-104"/>
                        <use x="158.789062" xlink:href="#DejaVuSans-105"/>
                        <use x="186.572266" xlink:href="#DejaVuSans-116"/>
                        <use x="225.78125" xlink:href="#DejaVuSans-32"/>
                        <use x="257.568359" xlink:href="#DejaVuSans-97"/>
                        <use x="318.847656" xlink:href="#DejaVuSans-116"/>
                        <use x="358.056641" xlink:href="#DejaVuSans-116"/>
                        <use x="397.265625" xlink:href="#DejaVuSans-97"/>
                        <use x="458.544922" xlink:href="#DejaVuSans-99"/>
                        <use x="513.525391" xlink:href="#DejaVuSans-104"/>
                        <use x="576.904297" xlink:href="#DejaVuSans-101"/>
                        <use x="638.427734" xlink:href="#DejaVuSans-100"/>
                        <use x="701.904297" xlink:href="#DejaVuSans-32"/>
                        <use x="733.691406" xlink:href="#DejaVuSans-84"/>
                        <use x="788.900391" xlink:href="#DejaVuSans-67"/>
                    </g>
                </g>
                <g id="line2d_27">
                    <path d="M 66.44 67.932812
L 86.44 67.932812 
" style="fill:none;stroke:#d62728;stroke-linecap:square;stroke-width:1.5;"/>
                </g>
                <g id="line2d_28"/>
                <g id="text_19">
                    <!-- Free 0 hit TC -->
                    <g transform="translate(94.44 71.432812)scale(0.1 -0.1)">
                        <defs>
                            <path d="M 9.8125 72.90625
L 51.703125 72.90625 
L 51.703125 64.59375 
L 19.671875 64.59375 
L 19.671875 43.109375 
L 48.578125 43.109375 
L 48.578125 34.8125 
L 19.671875 34.8125 
L 19.671875 0 
L 9.8125 0 
z
" id="DejaVuSans-70"/>
                            <path d="M 41.109375 46.296875
Q 39.59375 47.171875 37.8125 47.578125 
Q 36.03125 48 33.890625 48 
Q 26.265625 48 22.1875 43.046875 
Q 18.109375 38.09375 18.109375 28.8125 
L 18.109375 0 
L 9.078125 0 
L 9.078125 54.6875 
L 18.109375 54.6875 
L 18.109375 46.1875 
Q 20.953125 51.171875 25.484375 53.578125 
Q 30.03125 56 36.53125 56 
Q 37.453125 56 38.578125 55.875 
Q 39.703125 55.765625 41.0625 55.515625 
z
" id="DejaVuSans-114"/>
                        </defs>
                        <use xlink:href="#DejaVuSans-70"/>
                        <use x="50.269531" xlink:href="#DejaVuSans-114"/>
                        <use x="89.132812" xlink:href="#DejaVuSans-101"/>
                        <use x="150.65625" xlink:href="#DejaVuSans-101"/>
                        <use x="212.179688" xlink:href="#DejaVuSans-32"/>
                        <use x="243.966797" xlink:href="#DejaVuSans-48"/>
                        <use x="307.589844" xlink:href="#DejaVuSans-32"/>
                        <use x="339.376953" xlink:href="#DejaVuSans-104"/>
                        <use x="402.755859" xlink:href="#DejaVuSans-105"/>
                        <use x="430.539062" xlink:href="#DejaVuSans-116"/>
                        <use x="469.748047" xlink:href="#DejaVuSans-32"/>
                        <use x="501.535156" xlink:href="#DejaVuSans-84"/>
                        <use x="556.744141" xlink:href="#DejaVuSans-67"/>
                    </g>
                </g>
                <g id="line2d_29">
                    <path d="M 66.44 82.610937
L 86.44 82.610937 
" style="fill:none;stroke:#9467bd;stroke-linecap:square;stroke-width:1.5;"/>
                </g>
                <g id="line2d_30"/>
                <g id="text_20">
                    <!-- Free 1 hit TC -->
                    <g transform="translate(94.44 86.110937)scale(0.1 -0.1)">
                        <use xlink:href="#DejaVuSans-70"/>
                        <use x="50.269531" xlink:href="#DejaVuSans-114"/>
                        <use x="89.132812" xlink:href="#DejaVuSans-101"/>
                        <use x="150.65625" xlink:href="#DejaVuSans-101"/>
                        <use x="212.179688" xlink:href="#DejaVuSans-32"/>
                        <use x="243.966797" xlink:href="#DejaVuSans-49"/>
                        <use x="307.589844" xlink:href="#DejaVuSans-32"/>
                        <use x="339.376953" xlink:href="#DejaVuSans-104"/>
                        <use x="402.755859" xlink:href="#DejaVuSans-105"/>
                        <use x="430.539062" xlink:href="#DejaVuSans-116"/>
                        <use x="469.748047" xlink:href="#DejaVuSans-32"/>
                        <use x="501.535156" xlink:href="#DejaVuSans-84"/>
                        <use x="556.744141" xlink:href="#DejaVuSans-67"/>
                    </g>
                </g>
                <g id="line2d_31">
                    <path d="M 66.44 97.289062
L 86.44 97.289062 
" style="fill:none;stroke:#8c564b;stroke-linecap:square;stroke-width:1.5;"/>
                </g>
                <g id="line2d_32"/>
                <g id="text_21">
                    <!-- Free 2 hit TC -->
                    <g transform="translate(94.44 100.789062)scale(0.1 -0.1)">
                        <use xlink:href="#DejaVuSans-70"/>
                        <use x="50.269531" xlink:href="#DejaVuSans-114"/>
                        <use x="89.132812" xlink:href="#DejaVuSans-101"/>
                        <use x="150.65625" xlink:href="#DejaVuSans-101"/>
                        <use x="212.179688" xlink:href="#DejaVuSans-32"/>
                        <use x="243.966797" xlink:href="#DejaVuSans-50"/>
                        <use x="307.589844" xlink:href="#DejaVuSans-32"/>
                        <use x="339.376953" xlink:href="#DejaVuSans-104"/>
                        <use x="402.755859" xlink:href="#DejaVuSans-105"/>
                        <use x="430.539062" xlink:href="#DejaVuSans-116"/>
                        <use x="469.748047" xlink:href="#DejaVuSans-32"/>
                        <use x="501.535156" xlink:href="#DejaVuSans-84"/>
                        <use x="556.744141" xlink:href="#DejaVuSans-67"/>
                    </g>
                </g>
                <g id="line2d_33">
                    <path d="M 66.44 111.967188
L 86.44 111.967188 
" style="fill:none;stroke:#e377c2;stroke-linecap:square;stroke-width:1.5;"/>
                </g>
                <g id="line2d_34"/>
                <g id="text_22">
                    <!-- Free CTL -->
                    <g transform="translate(94.44 115.467188)scale(0.1 -0.1)">
                        <defs>
                            <path d="M 9.8125 72.90625
L 19.671875 72.90625 
L 19.671875 8.296875 
L 55.171875 8.296875 
L 55.171875 0 
L 9.8125 0 
z
" id="DejaVuSans-76"/>
                        </defs>
                        <use xlink:href="#DejaVuSans-70"/>
                        <use x="50.269531" xlink:href="#DejaVuSans-114"/>
                        <use x="89.132812" xlink:href="#DejaVuSans-101"/>
                        <use x="150.65625" xlink:href="#DejaVuSans-101"/>
                        <use x="212.179688" xlink:href="#DejaVuSans-32"/>
                        <use x="243.966797" xlink:href="#DejaVuSans-67"/>
                        <use x="313.791016" xlink:href="#DejaVuSans-84"/>
                        <use x="374.875" xlink:href="#DejaVuSans-76"/>
                    </g>
                </g>
            </g>
        </g>
    </g>
    <defs>
        <clipPath id="p6ad85217e5">
            <rect height="667.24" width="1227.76" x="57.44" y="10.8"/>
        </clipPath>
    </defs>
</svg>
